<?xml version="1.0" encoding="utf-8"?>
<!-- Generator: Adobe Illustrator 16.0.0, SVG Export Plug-In . SVG Version: 6.00 Build 0)  -->
<!DOCTYPE svg PUBLIC "-//W3C//DTD SVG 1.1//EN" "http://www.w3.org/Graphics/SVG/1.1/DTD/svg11.dtd">
<svg version="1.1" id="Layer_1" xmlns="http://www.w3.org/2000/svg" xmlns:xlink="http://www.w3.org/1999/xlink" x="0px" y="0px"
	 width="1000px" height="428.061px" viewBox="750 320.974 1000 428.061" enable-background="new 750 320.974 1000 428.061"
	 xml:space="preserve">
<g>
	<path d="M1742.721,464.34c-0.117-0.266-0.278-0.499-0.479-0.692c-0.207-0.208-0.447-0.37-0.707-0.479
		c-0.258-0.11-0.557-0.175-0.854-0.175l-91.105,0.032c-4.936-0.026-9.048-0.861-12.436-2.138c-3.4-1.27-6.068-2.979-8.128-4.728
		c-2.06-1.755-3.497-3.562-4.437-5.032c-0.933-1.471-1.36-2.61-1.38-3.025c0.053-0.602,0.13-0.983,0.382-1.308
		c0.247-0.317,0.675-0.57,1.419-0.938c0.751-0.357,1.833-0.823,3.394-1.549c1.567-0.738,3.607-1.735,6.295-3.167
		c1.166-0.628,2.332-1.295,3.479-1.988c1.152-0.687,2.273-1.398,3.361-2.138c1.075-0.751,2.124-1.502,3.135-2.292
		c0.997-0.784,1.943-1.593,2.824-2.416c3.03-2.817,5.776-5.764,8.199-8.892c2.416-3.109,4.501-6.399,6.204-9.91
		c1.71-3.51,3.031-7.24,3.944-11.236c0.894-3.996,1.367-8.245,1.367-12.817c0-2.901-0.13-6.179-0.603-9.67
		c-0.467-3.491-1.276-7.222-2.643-11.062c-1.373-3.848-3.297-7.805-5.984-11.781c-2.701-3.957-6.16-7.928-10.603-11.787
		c-4.579-3.951-9.494-6.969-14.287-9.269c-4.793-2.299-9.469-3.893-13.575-4.987c-4.112-1.088-7.648-1.684-10.162-2.014
		c-2.513-0.323-4.002-0.375-4.016-0.375h-135.977c-0.304,0-0.588,0.064-0.854,0.174c-0.259,0.11-0.499,0.272-0.699,0.473
		c-0.2,0.195-0.363,0.435-0.485,0.7c-0.11,0.266-0.169,0.557-0.169,0.867v188.871c0,0.298,0.059,0.583,0.169,0.842
		c0.116,0.266,0.271,0.505,0.473,0.699c0.2,0.208,0.434,0.363,0.699,0.479c0.266,0.117,0.558,0.182,0.867,0.182h63.103
		c0.311,0,0.602-0.064,0.867-0.182c0.26-0.116,0.499-0.271,0.7-0.479c0.194-0.194,0.362-0.434,0.466-0.699
		c0.116-0.259,0.182-0.544,0.182-0.842v-64.688c0-0.259,0.013-0.466,0.046-0.647c0.025-0.194,0.064-0.343,0.129-0.466
		c0.053-0.117,0.11-0.214,0.188-0.285c0.071-0.065,0.156-0.117,0.247-0.143c0.278-0.007,0.569,0.077,0.849,0.214
		c0.278,0.136,0.55,0.33,0.789,0.511c0.24,0.194,0.447,0.383,0.59,0.545c0.148,0.143,0.246,0.246,0.259,0.271l53.342,53.399
		c3.16,3.193,6.891,5.642,10.718,7.5c3.828,1.859,7.754,3.142,11.276,4.022c3.529,0.894,6.665,1.373,8.918,1.645
		c2.254,0.26,3.627,0.312,3.634,0.324h115.03c0.317,0,0.603-0.064,0.868-0.182c0.259-0.116,0.499-0.271,0.7-0.479
		c0.2-0.194,0.362-0.434,0.473-0.699c0.109-0.259,0.174-0.544,0.174-0.842v-54.391
		C1742.895,464.896,1742.83,464.605,1742.721,464.34 M1605.099,402.443c-1.14,2.461-2.733,4.455-4.514,6.036
		c-1.781,1.58-3.736,2.759-5.635,3.588c-1.892,0.842-3.704,1.334-5.201,1.542c-0.078,0.013-0.161,0.025-0.252,0.038
		c-0.084,0.014-0.162,0.026-0.253,0.026c-0.085,0.013-0.168,0.013-0.266,0.025c-0.09,0-0.175,0-0.266,0h-51.838
		c-0.305,0-0.597-0.064-0.862-0.168c-0.265-0.117-0.505-0.272-0.706-0.479c-0.194-0.194-0.355-0.428-0.466-0.699
		c-0.116-0.26-0.175-0.558-0.175-0.855v-36.696c0-0.311,0.059-0.596,0.175-0.854c0.11-0.259,0.271-0.499,0.466-0.7
		c0.201-0.193,0.441-0.362,0.706-0.479c0.266-0.11,0.558-0.175,0.862-0.175h48.056c2.649,0,5.35,0.407,7.908,1.249
		c2.564,0.843,4.98,2.112,7.072,3.828c2.092,1.729,3.854,3.893,5.084,6.535c1.236,2.643,1.956,5.751,1.956,9.352
		C1606.951,397.041,1606.252,399.976,1605.099,402.443"/>
	<path fill="none" stroke="#000000" stroke-width="3.4686" stroke-miterlimit="10" d="M1742.721,464.34
		c-0.117-0.266-0.278-0.499-0.479-0.692c-0.207-0.208-0.447-0.37-0.707-0.479c-0.258-0.11-0.557-0.175-0.854-0.175l-91.105,0.032
		c-4.936-0.026-9.048-0.861-12.436-2.138c-3.4-1.27-6.068-2.979-8.128-4.728c-2.06-1.755-3.497-3.562-4.437-5.032
		c-0.933-1.471-1.36-2.61-1.38-3.025c0.053-0.602,0.13-0.983,0.382-1.308c0.247-0.317,0.675-0.57,1.419-0.938
		c0.751-0.357,1.833-0.823,3.394-1.549c1.567-0.738,3.607-1.735,6.295-3.167c1.166-0.628,2.332-1.295,3.479-1.988
		c1.152-0.687,2.273-1.398,3.361-2.138c1.075-0.751,2.124-1.502,3.135-2.292c0.997-0.784,1.943-1.593,2.824-2.416
		c3.03-2.817,5.776-5.764,8.199-8.892c2.416-3.109,4.501-6.399,6.204-9.91c1.71-3.51,3.031-7.24,3.944-11.236
		c0.894-3.996,1.367-8.245,1.367-12.817c0-2.901-0.13-6.179-0.603-9.67c-0.467-3.491-1.276-7.222-2.643-11.062
		c-1.373-3.848-3.297-7.805-5.984-11.781c-2.701-3.957-6.16-7.928-10.603-11.787c-4.579-3.951-9.494-6.969-14.287-9.269
		c-4.793-2.299-9.469-3.893-13.575-4.987c-4.112-1.088-7.648-1.684-10.162-2.014c-2.513-0.323-4.002-0.375-4.016-0.375h-135.977
		c-0.304,0-0.588,0.064-0.854,0.174c-0.259,0.11-0.499,0.272-0.699,0.473c-0.2,0.195-0.363,0.435-0.485,0.7
		c-0.11,0.266-0.169,0.557-0.169,0.867v188.871c0,0.298,0.059,0.583,0.169,0.842c0.116,0.266,0.271,0.505,0.473,0.699
		c0.2,0.208,0.434,0.363,0.699,0.479c0.266,0.117,0.558,0.182,0.867,0.182h63.103c0.311,0,0.602-0.064,0.867-0.182
		c0.26-0.116,0.499-0.271,0.7-0.479c0.194-0.194,0.362-0.434,0.466-0.699c0.116-0.259,0.182-0.544,0.182-0.842v-64.688
		c0-0.259,0.013-0.466,0.046-0.647c0.025-0.194,0.064-0.343,0.129-0.466c0.053-0.117,0.11-0.214,0.188-0.285
		c0.071-0.065,0.156-0.117,0.247-0.143c0.278-0.007,0.569,0.077,0.849,0.214c0.278,0.136,0.55,0.33,0.789,0.511
		c0.24,0.194,0.447,0.383,0.59,0.545c0.148,0.143,0.246,0.246,0.259,0.271l53.342,53.399c3.16,3.193,6.891,5.642,10.718,7.5
		c3.828,1.859,7.754,3.142,11.276,4.022c3.529,0.894,6.665,1.373,8.918,1.645c2.254,0.26,3.627,0.312,3.634,0.324h115.03
		c0.317,0,0.603-0.064,0.868-0.182c0.259-0.116,0.499-0.271,0.7-0.479c0.2-0.194,0.362-0.434,0.473-0.699
		c0.109-0.259,0.174-0.544,0.174-0.842v-54.391C1742.895,464.896,1742.83,464.605,1742.721,464.34z M1605.099,402.443
		c-1.14,2.461-2.733,4.455-4.514,6.036c-1.781,1.58-3.736,2.759-5.635,3.588c-1.892,0.842-3.704,1.334-5.201,1.542
		c-0.078,0.013-0.161,0.025-0.252,0.038c-0.084,0.014-0.162,0.026-0.253,0.026c-0.085,0.013-0.168,0.013-0.266,0.025
		c-0.09,0-0.175,0-0.266,0h-51.838c-0.305,0-0.597-0.064-0.862-0.168c-0.265-0.117-0.505-0.272-0.706-0.479
		c-0.194-0.194-0.355-0.428-0.466-0.699c-0.116-0.26-0.175-0.558-0.175-0.855v-36.696c0-0.311,0.059-0.596,0.175-0.854
		c0.11-0.259,0.271-0.499,0.466-0.7c0.201-0.193,0.441-0.362,0.706-0.479c0.266-0.11,0.558-0.175,0.862-0.175h48.056
		c2.649,0,5.35,0.407,7.908,1.249c2.564,0.843,4.98,2.112,7.072,3.828c2.092,1.729,3.854,3.893,5.084,6.535
		c1.236,2.643,1.956,5.751,1.956,9.352C1606.951,397.041,1606.252,399.976,1605.099,402.443z"/>
	<path d="M1225.803,378.998v-48.277c0-0.311-0.065-0.602-0.168-0.867c-0.117-0.259-0.272-0.505-0.473-0.7
		c-0.208-0.2-0.447-0.362-0.712-0.473c-0.259-0.109-0.551-0.174-0.855-0.174H943.294c-2.584,0-5.518,0.349-8.607,0.971
		c-3.083,0.622-6.328,1.529-9.533,2.643c-3.206,1.114-6.38,2.448-9.314,3.912c-2.94,1.483-5.654,3.103-7.953,4.799
		c-2.48,1.833-5.064,4.164-7.552,6.924c-2.474,2.759-4.851,5.958-6.917,9.508c-2.066,3.549-3.821,7.474-5.065,11.684
		c-1.237,4.21-1.962,8.717-1.962,13.458c0,5.064,0.783,9.884,1.949,14.262c1.166,4.385,2.727,8.329,4.294,11.639
		c1.555,3.309,3.115,5.99,4.288,7.843s1.956,2.883,1.962,2.889c1.736,2.137,4.165,4.909,6.826,7.862
		c2.662,2.94,5.563,6.075,8.265,8.944c2.707,2.869,5.201,5.485,7.04,7.416c1.852,1.93,3.044,3.167,3.147,3.277
		c0.408,0.453,0.764,0.945,1.082,1.463c0.31,0.519,0.576,1.05,0.783,1.606c0.214,0.558,0.382,1.127,0.486,1.717
		c0.116,0.583,0.168,1.172,0.168,1.768c0,1.373-0.278,2.682-0.783,3.867c-0.505,1.198-1.23,2.26-2.131,3.166
		c-0.894,0.895-1.962,1.62-3.147,2.125c-1.185,0.499-2.493,0.777-3.859,0.777l-156.883-0.032c-0.311,0-0.602,0.071-0.868,0.175
		c-0.266,0.116-0.505,0.285-0.706,0.479c-0.194,0.207-0.356,0.439-0.466,0.705c-0.11,0.266-0.175,0.551-0.175,0.849v54.352
		c0,0.311,0.064,0.603,0.175,0.861c0.11,0.267,0.272,0.499,0.466,0.706c0.201,0.201,0.44,0.35,0.706,0.467
		c0.266,0.116,0.557,0.168,0.868,0.168l190.477,0.039c2.805,0,5.92-0.182,9.236-0.674c3.316-0.492,6.833-1.282,10.434-2.513
		s7.28-2.896,10.926-5.116c3.653-2.216,7.267-5,10.738-8.472c0.92-0.92,2.37-2.48,4.022-4.65c1.639-2.163,3.498-4.936,5.24-8.303
		c1.735-3.368,3.361-7.318,4.546-11.839c1.192-4.521,1.943-9.611,1.943-15.233c0-5.557-0.589-10.428-1.554-14.702
		c-0.965-4.287-2.306-7.966-3.802-11.152c-1.502-3.187-3.161-5.868-4.76-8.135c-1.593-2.26-3.141-4.106-4.404-5.622
		c-0.958-1.165-2.455-2.85-4.313-4.902c-1.859-2.047-4.08-4.456-6.483-7.027c-2.396-2.577-4.98-5.323-7.571-8.069
		c-2.59-2.746-5.194-5.479-7.616-8.019c-0.466-0.467-0.881-0.958-1.244-1.489c-0.356-0.519-0.674-1.075-0.913-1.651
		c-0.246-0.57-0.44-1.166-0.563-1.774c-0.129-0.615-0.194-1.237-0.194-1.866c0-1.055,0.162-2.079,0.473-3.03
		c0.311-0.952,0.764-1.846,1.334-2.637c0.583-0.803,1.282-1.502,2.085-2.078c0.796-0.57,1.697-1.03,2.681-1.328
		c0.175-0.052,0.356-0.097,0.538-0.143c0.175-0.026,0.356-0.064,0.537-0.091c0.175-0.026,0.357-0.039,0.544-0.052
		c0.175-0.02,0.356-0.02,0.524-0.02h96.398c1.017,0,1.988,0.208,2.875,0.577c0.881,0.375,1.677,0.919,2.338,1.586
		c0.667,0.668,1.198,1.464,1.581,2.352c0.369,0.881,0.576,1.853,0.576,2.875l0.026,130.957c0,0.311,0.058,0.603,0.174,0.861
		c0.11,0.267,0.279,0.499,0.467,0.706c0.2,0.201,0.434,0.35,0.699,0.467c0.259,0.116,0.544,0.168,0.842,0.168l54.935,0.039
		c0.304,0,0.589-0.064,0.854-0.182c0.266-0.11,0.499-0.271,0.7-0.479c0.207-0.194,0.369-0.434,0.479-0.699
		c0.11-0.259,0.182-0.55,0.182-0.842l-0.033-130.996c0-1.022,0.201-1.994,0.583-2.875c0.376-0.888,0.914-1.684,1.58-2.352
		c0.674-0.667,1.477-1.211,2.358-1.586c0.887-0.369,1.859-0.577,2.875-0.577h80.368c0.304,0,0.596-0.059,0.855-0.175
		c0.266-0.11,0.505-0.271,0.712-0.466c0.201-0.201,0.356-0.44,0.473-0.706C1225.738,379.594,1225.803,379.302,1225.803,378.998"/>
	<path fill="none" stroke="#000000" stroke-width="3.4686" stroke-miterlimit="10" d="M1225.803,378.998v-48.277
		c0-0.311-0.065-0.602-0.168-0.867c-0.117-0.259-0.272-0.505-0.473-0.7c-0.208-0.2-0.447-0.362-0.712-0.473
		c-0.259-0.109-0.551-0.174-0.855-0.174H943.294c-2.584,0-5.518,0.349-8.607,0.971c-3.083,0.622-6.328,1.529-9.533,2.643
		c-3.206,1.114-6.38,2.448-9.314,3.912c-2.94,1.483-5.654,3.103-7.953,4.799c-2.48,1.833-5.064,4.164-7.552,6.924
		c-2.474,2.759-4.851,5.958-6.917,9.508c-2.066,3.549-3.821,7.474-5.065,11.684c-1.237,4.21-1.962,8.717-1.962,13.458
		c0,5.064,0.783,9.884,1.949,14.262c1.166,4.385,2.727,8.329,4.294,11.639c1.555,3.309,3.115,5.99,4.288,7.843
		s1.956,2.883,1.962,2.889c1.736,2.137,4.165,4.909,6.826,7.862c2.662,2.94,5.563,6.075,8.265,8.944
		c2.707,2.869,5.201,5.485,7.04,7.416c1.852,1.93,3.044,3.167,3.147,3.277c0.408,0.453,0.764,0.945,1.082,1.463
		c0.31,0.519,0.576,1.05,0.783,1.606c0.214,0.558,0.382,1.127,0.486,1.717c0.116,0.583,0.168,1.172,0.168,1.768
		c0,1.373-0.278,2.682-0.783,3.867c-0.505,1.198-1.23,2.26-2.131,3.166c-0.894,0.895-1.962,1.62-3.147,2.125
		c-1.185,0.499-2.493,0.777-3.859,0.777l-156.883-0.032c-0.311,0-0.602,0.071-0.868,0.175c-0.266,0.116-0.505,0.285-0.706,0.479
		c-0.194,0.207-0.356,0.439-0.466,0.705c-0.11,0.266-0.175,0.551-0.175,0.849v54.352c0,0.311,0.064,0.603,0.175,0.861
		c0.11,0.267,0.272,0.499,0.466,0.706c0.201,0.201,0.44,0.35,0.706,0.467c0.266,0.116,0.557,0.168,0.868,0.168l190.477,0.039
		c2.805,0,5.92-0.182,9.236-0.674c3.316-0.492,6.833-1.282,10.434-2.513s7.28-2.896,10.926-5.116c3.653-2.216,7.267-5,10.738-8.472
		c0.92-0.92,2.37-2.48,4.022-4.65c1.639-2.163,3.498-4.936,5.24-8.303c1.735-3.368,3.361-7.318,4.546-11.839
		c1.192-4.521,1.943-9.611,1.943-15.233c0-5.557-0.589-10.428-1.554-14.702c-0.965-4.287-2.306-7.966-3.802-11.152
		c-1.502-3.187-3.161-5.868-4.76-8.135c-1.593-2.26-3.141-4.106-4.404-5.622c-0.958-1.165-2.455-2.85-4.313-4.902
		c-1.859-2.047-4.08-4.456-6.483-7.027c-2.396-2.577-4.98-5.323-7.571-8.069c-2.59-2.746-5.194-5.479-7.616-8.019
		c-0.466-0.467-0.881-0.958-1.244-1.489c-0.356-0.519-0.674-1.075-0.913-1.651c-0.246-0.57-0.44-1.166-0.563-1.774
		c-0.129-0.615-0.194-1.237-0.194-1.866c0-1.055,0.162-2.079,0.473-3.03c0.311-0.952,0.764-1.846,1.334-2.637
		c0.583-0.803,1.282-1.502,2.085-2.078c0.796-0.57,1.697-1.03,2.681-1.328c0.175-0.052,0.356-0.097,0.538-0.143
		c0.175-0.026,0.356-0.064,0.537-0.091c0.175-0.026,0.357-0.039,0.544-0.052c0.175-0.02,0.356-0.02,0.524-0.02h96.398
		c1.017,0,1.988,0.208,2.875,0.577c0.881,0.375,1.677,0.919,2.338,1.586c0.667,0.668,1.198,1.464,1.581,2.352
		c0.369,0.881,0.576,1.853,0.576,2.875l0.026,130.957c0,0.311,0.058,0.603,0.174,0.861c0.11,0.267,0.279,0.499,0.467,0.706
		c0.2,0.201,0.434,0.35,0.699,0.467c0.259,0.116,0.544,0.168,0.842,0.168l54.935,0.039c0.304,0,0.589-0.064,0.854-0.182
		c0.266-0.11,0.499-0.271,0.7-0.479c0.207-0.194,0.369-0.434,0.479-0.699c0.11-0.259,0.182-0.55,0.182-0.842l-0.033-130.996
		c0-1.022,0.201-1.994,0.583-2.875c0.376-0.888,0.914-1.684,1.58-2.352c0.674-0.667,1.477-1.211,2.358-1.586
		c0.887-0.369,1.859-0.577,2.875-0.577h80.368c0.304,0,0.596-0.059,0.855-0.175c0.266-0.11,0.505-0.271,0.712-0.466
		c0.201-0.201,0.356-0.44,0.473-0.706C1225.738,379.594,1225.803,379.302,1225.803,378.998"/>
	<path d="M1377.104,330.313c-0.071-0.253-0.182-0.485-0.324-0.693c-0.143-0.22-0.317-0.401-0.524-0.57
		c-0.201-0.155-0.428-0.284-0.681-0.375c-0.252-0.091-0.524-0.155-0.803-0.168h-100.996c-0.291,0.013-0.563,0.077-0.803,0.168
		c-0.253,0.091-0.479,0.22-0.68,0.375c-0.201,0.169-0.376,0.351-0.525,0.57c-0.142,0.208-0.259,0.44-0.337,0.693l-57.389,189.641
		c0,0.253,0.058,0.493,0.149,0.713s0.227,0.414,0.389,0.59c0.168,0.161,0.376,0.297,0.589,0.395
		c0.221,0.091,0.467,0.143,0.719,0.143h58.646c0.148-0.052,0.285-0.13,0.415-0.227c0.122-0.091,0.239-0.201,0.336-0.33
		c0.098-0.13,0.188-0.26,0.253-0.402c0.071-0.148,0.123-0.297,0.162-0.453l8.633-27.532c0.071-0.161,0.162-0.311,0.278-0.446
		c0.104-0.137,0.24-0.259,0.383-0.363c0.148-0.104,0.305-0.181,0.479-0.246c0.169-0.064,0.357-0.097,0.551-0.104h79.04
		c0.195,0.007,0.376,0.039,0.551,0.104c0.176,0.065,0.331,0.143,0.479,0.246c0.148,0.104,0.278,0.227,0.39,0.363
		c0.103,0.136,0.2,0.285,0.271,0.446l8.815,27.532c0.032,0.156,0.091,0.305,0.155,0.453c0.084,0.143,0.162,0.272,0.266,0.402
		c0.11,0.129,0.221,0.239,0.35,0.33c0.129,0.097,0.271,0.175,0.428,0.227h57.389c0.259,0,0.512-0.052,0.731-0.143
		c0.215-0.098,0.422-0.233,0.584-0.395c0.161-0.176,0.298-0.37,0.388-0.59c0.092-0.22,0.143-0.46,0.143-0.713L1377.104,330.313z
		 M1353.107,450.681c-0.091,0.259-0.221,0.492-0.382,0.693c-0.162,0.207-0.363,0.395-0.584,0.537
		c-0.232,0.143-0.473,0.253-0.744,0.324h-50.239c-0.266-0.071-0.512-0.182-0.738-0.324c-0.226-0.143-0.428-0.33-0.583-0.537
		c-0.168-0.201-0.291-0.435-0.388-0.693c-0.085-0.259-0.13-0.518-0.13-0.815l25.485-83.406c0.091-0.232,0.181-0.453,0.285-0.647
		c0.11-0.194,0.227-0.369,0.336-0.506c0.13-0.142,0.253-0.245,0.39-0.323c0.123-0.077,0.265-0.116,0.401-0.116
		c0.129,0,0.245,0.032,0.362,0.091c0.117,0.064,0.227,0.155,0.343,0.271c0.111,0.116,0.214,0.259,0.312,0.414
		c0.097,0.156,0.194,0.344,0.272,0.545l25.737,83.678C1353.243,450.163,1353.192,450.422,1353.107,450.681"/>
	<path fill="none" stroke="#000000" stroke-width="3.4686" stroke-miterlimit="10" d="M1377.104,330.313
		c-0.071-0.253-0.182-0.485-0.324-0.693c-0.143-0.22-0.317-0.401-0.524-0.57c-0.201-0.155-0.428-0.284-0.681-0.375
		c-0.252-0.091-0.524-0.155-0.803-0.168h-100.996c-0.291,0.013-0.563,0.077-0.803,0.168c-0.253,0.091-0.479,0.22-0.68,0.375
		c-0.201,0.169-0.376,0.351-0.525,0.57c-0.142,0.208-0.259,0.44-0.337,0.693l-57.389,189.641c0,0.253,0.058,0.493,0.149,0.713
		s0.227,0.414,0.389,0.59c0.168,0.161,0.376,0.297,0.589,0.395c0.221,0.091,0.467,0.143,0.719,0.143h58.646
		c0.148-0.052,0.285-0.13,0.415-0.227c0.122-0.091,0.239-0.201,0.336-0.33c0.098-0.13,0.188-0.26,0.253-0.402
		c0.071-0.148,0.123-0.297,0.162-0.453l8.633-27.532c0.071-0.161,0.162-0.311,0.278-0.446c0.104-0.137,0.24-0.259,0.383-0.363
		c0.148-0.104,0.305-0.181,0.479-0.246c0.169-0.064,0.357-0.097,0.551-0.104h79.04c0.195,0.007,0.376,0.039,0.551,0.104
		c0.176,0.065,0.331,0.143,0.479,0.246c0.148,0.104,0.278,0.227,0.39,0.363c0.103,0.136,0.2,0.285,0.271,0.446l8.815,27.532
		c0.032,0.156,0.091,0.305,0.155,0.453c0.084,0.143,0.162,0.272,0.266,0.402c0.11,0.129,0.221,0.239,0.35,0.33
		c0.129,0.097,0.271,0.175,0.428,0.227h57.389c0.259,0,0.512-0.052,0.731-0.143c0.215-0.098,0.422-0.233,0.584-0.395
		c0.161-0.176,0.298-0.37,0.388-0.59c0.092-0.22,0.143-0.46,0.143-0.713L1377.104,330.313z M1353.107,450.681
		c-0.091,0.259-0.221,0.492-0.382,0.693c-0.162,0.207-0.363,0.395-0.584,0.537c-0.232,0.143-0.473,0.253-0.744,0.324h-50.239
		c-0.266-0.071-0.512-0.182-0.738-0.324c-0.226-0.143-0.428-0.33-0.583-0.537c-0.168-0.201-0.291-0.435-0.388-0.693
		c-0.085-0.259-0.13-0.518-0.13-0.815l25.485-83.406c0.091-0.232,0.181-0.453,0.285-0.647c0.11-0.194,0.227-0.369,0.336-0.506
		c0.13-0.142,0.253-0.245,0.39-0.323c0.123-0.077,0.265-0.116,0.401-0.116c0.129,0,0.245,0.032,0.362,0.091
		c0.117,0.064,0.227,0.155,0.343,0.271c0.111,0.116,0.214,0.259,0.312,0.414c0.097,0.156,0.194,0.344,0.272,0.545l25.737,83.678
		C1353.243,450.163,1353.192,450.422,1353.107,450.681z"/>
	<path fill="#FFE700" d="M1382.304,322.819c0.797,2.546,5.162,16.581,11.257,36.192c6.094,19.61,13.925,44.805,21.651,69.694
		c7.739,24.89,15.375,49.468,21.074,67.842c5.693,18.388,9.469,30.563,9.469,30.647c0,0.259-0.052,0.505-0.154,0.719
		c-0.092,0.227-0.221,0.421-0.39,0.576c-0.175,0.156-0.368,0.292-0.589,0.376c-0.221,0.091-0.46,0.143-0.719,0.143h-72.797
		c-0.162-0.052-0.299-0.116-0.435-0.214c-0.123-0.084-0.239-0.2-0.343-0.317c-0.091-0.13-0.182-0.259-0.253-0.401
		c-0.065-0.143-0.117-0.298-0.143-0.453l-8.814-27.525c-0.071-0.169-0.162-0.324-0.266-0.467c-0.116-0.136-0.246-0.259-0.395-0.369
		c-0.143-0.098-0.312-0.175-0.474-0.246c-0.175-0.064-0.362-0.098-0.557-0.116l-68.264,0.032c-0.188,0.006-0.375,0.038-0.544,0.104
		c-0.168,0.052-0.33,0.136-0.473,0.233c-0.143,0.104-0.272,0.227-0.389,0.362c-0.11,0.143-0.2,0.298-0.285,0.467l-8.594,27.499
		c-0.039,0.156-0.098,0.317-0.169,0.467c-0.071,0.148-0.155,0.284-0.253,0.408c-0.103,0.123-0.214,0.239-0.343,0.323
		c-0.123,0.098-0.26,0.162-0.401,0.214h-74.009c-0.252,0-0.498-0.064-0.712-0.149c-0.22-0.091-0.421-0.227-0.589-0.395
		c-0.163-0.169-0.305-0.363-0.402-0.583c-0.091-0.22-0.136-0.466-0.136-0.719c0-0.098,3.666-12.273,9.223-30.654
		c5.551-18.38,12.985-42.965,20.518-67.849c7.533-24.883,15.169-50.077,21.114-69.688c5.933-19.611,10.181-33.641,10.959-36.192
		c0.07-0.245,0.187-0.491,0.329-0.699c0.156-0.213,0.337-0.401,0.531-0.557c0.207-0.155,0.44-0.292,0.687-0.389
		c0.247-0.091,0.512-0.143,0.79-0.162h111.955c0.278,0.02,0.544,0.071,0.79,0.162c0.246,0.104,0.473,0.233,0.673,0.396
		c0.208,0.161,0.39,0.35,0.531,0.563C1382.116,322.314,1382.233,322.548,1382.304,322.819 M1433.896,521.645
		c0.259,0,0.505-0.052,0.726-0.148c0.22-0.091,0.421-0.221,0.589-0.389c0.162-0.169,0.291-0.362,0.39-0.59
		c0.083-0.213,0.142-0.459,0.142-0.706l-58.904-189.641c-0.071-0.253-0.176-0.485-0.317-0.706c-0.143-0.207-0.317-0.396-0.525-0.558
		c-0.2-0.154-0.427-0.284-0.686-0.375c-0.246-0.091-0.519-0.155-0.803-0.169h-100.996c-0.279,0.014-0.551,0.078-0.798,0.169
		c-0.252,0.091-0.479,0.221-0.687,0.375c-0.2,0.162-0.375,0.351-0.518,0.558c-0.143,0.221-0.259,0.453-0.337,0.706l-57.396,189.641
		c0,0.247,0.065,0.493,0.155,0.706c0.091,0.228,0.227,0.421,0.389,0.59c0.168,0.168,0.369,0.298,0.589,0.389
		c0.22,0.097,0.459,0.148,0.719,0.148h58.646c0.148-0.052,0.285-0.136,0.414-0.214c0.117-0.103,0.24-0.22,0.331-0.343
		c0.104-0.123,0.194-0.259,0.259-0.407c0.07-0.137,0.123-0.285,0.168-0.448l8.627-27.531c0.064-0.155,0.162-0.311,0.271-0.44
		c0.111-0.143,0.24-0.259,0.39-0.363c0.148-0.109,0.304-0.188,0.479-0.246c0.175-0.064,0.355-0.103,0.55-0.109h79.04
		c0.194,0.007,0.376,0.045,0.551,0.109c0.175,0.059,0.33,0.137,0.479,0.246c0.149,0.104,0.278,0.221,0.382,0.363
		c0.11,0.13,0.207,0.285,0.279,0.44l8.807,27.531c0.039,0.163,0.098,0.312,0.169,0.448c0.072,0.148,0.156,0.284,0.267,0.407
		c0.097,0.123,0.206,0.24,0.343,0.343c0.13,0.078,0.272,0.162,0.421,0.214H1433.896"/>
	<path fill="#FFE700" d="M1584.672,372.443c2.649,0,5.35,0.414,7.908,1.257c2.558,0.842,4.98,2.111,7.078,3.834
		c2.086,1.71,3.848,3.886,5.078,6.528c1.237,2.63,1.949,5.751,1.949,9.352c0,3.484-0.692,6.412-1.853,8.88
		c-1.14,2.468-2.732,4.462-4.508,6.043c-1.773,1.58-3.736,2.759-5.628,3.588c-1.897,0.829-3.718,1.328-5.2,1.542
		c-0.084,0.013-0.175,0.025-0.26,0.038c-0.084,0-0.168,0.014-0.252,0.032c-0.084,0-0.175,0.007-0.266,0.014
		c-0.091,0-0.182,0-0.272,0h-51.838c-0.305,0-0.597-0.059-0.861-0.162c-0.266-0.117-0.506-0.272-0.7-0.479
		c-0.201-0.201-0.362-0.434-0.473-0.699s-0.175-0.558-0.175-0.861v-36.696c0-0.298,0.064-0.59,0.175-0.849
		c0.11-0.266,0.271-0.505,0.473-0.699c0.194-0.208,0.435-0.369,0.7-0.479c0.265-0.116,0.557-0.182,0.861-0.182H1584.672z
		 M1588.447,406.167c0.143-0.026,0.881-0.136,1.931-0.447c1.042-0.323,2.39-0.867,3.711-1.761c1.321-0.888,2.63-2.125,3.614-3.848
		c0.971-1.71,1.612-3.898,1.612-6.697c0-2.791-0.615-5.032-1.606-6.826c-0.997-1.801-2.376-3.147-3.911-4.145
		c-1.523-1.011-3.206-1.658-4.807-2.06c-1.6-0.401-3.114-0.551-4.319-0.551h-41.67c-0.014,0.007-0.099,0.026-0.214,0.084
		c-0.117,0.052-0.259,0.13-0.408,0.267c-0.149,0.122-0.292,0.291-0.396,0.518c-0.109,0.227-0.182,0.505-0.182,0.849v22.901
		c0,0.343,0.072,0.621,0.182,0.849c0.104,0.22,0.246,0.395,0.396,0.518c0.149,0.136,0.291,0.214,0.408,0.266
		c0.115,0.058,0.2,0.078,0.214,0.084H1588.447"/>
	<path fill="#FFE700" d="M1747.791,455.493c0.312,0,0.603,0.058,0.868,0.175c0.259,0.116,0.499,0.278,0.699,0.479
		c0.201,0.207,0.356,0.439,0.473,0.706c0.111,0.259,0.169,0.544,0.169,0.848v69.132c0,0.298-0.058,0.596-0.169,0.854
		c-0.116,0.272-0.271,0.505-0.473,0.706c-0.2,0.201-0.44,0.356-0.699,0.473c-0.266,0.104-0.557,0.169-0.868,0.169l-122.4-0.026
		c-0.312-0.013-2.015-0.052-4.631-0.337c-2.624-0.285-6.159-0.822-10.117-1.826c-3.957-1.004-8.348-2.487-12.688-4.663
		c-4.333-2.176-8.614-5.026-12.363-8.808l-42.254-42.345c0-0.013-0.059-0.064-0.129-0.136c-0.072-0.071-0.176-0.175-0.285-0.272
		c-0.104-0.097-0.233-0.188-0.356-0.259c-0.129-0.071-0.253-0.123-0.369-0.123c-0.059,0-0.11,0.013-0.155,0.039
		c-0.046,0.032-0.091,0.071-0.13,0.136c-0.032,0.059-0.059,0.149-0.077,0.246c-0.021,0.098-0.033,0.227-0.033,0.369v55.764
		c0,0.311-0.058,0.596-0.175,0.868c-0.109,0.259-0.272,0.498-0.467,0.699c-0.2,0.194-0.439,0.355-0.705,0.466
		c-0.266,0.117-0.557,0.182-0.861,0.182h-77.882c-0.304,0-0.595-0.064-0.86-0.182c-0.266-0.11-0.5-0.271-0.706-0.466
		c-0.194-0.201-0.356-0.44-0.467-0.699c-0.116-0.272-0.169-0.558-0.169-0.868V323.183c0-0.312,0.053-0.596,0.169-0.855
		c0.11-0.271,0.272-0.505,0.467-0.706c0.206-0.2,0.44-0.355,0.706-0.473c0.266-0.116,0.557-0.168,0.86-0.168l143.348,0.025
		c0.33,0.014,2.13,0.039,4.967,0.376c2.837,0.33,6.724,0.959,11.198,2.138c4.495,1.191,9.579,2.939,14.838,5.491
		c5.266,2.565,10.699,5.952,15.855,10.415c5.181,4.481,9.17,9.112,12.24,13.73c3.069,4.611,5.227,9.203,6.735,13.601
		s2.37,8.588,2.85,12.409c0.486,3.814,0.603,7.267,0.603,10.143c0,2.875-0.162,6.386-0.699,10.266
		c-0.538,3.879-1.463,8.141-3.031,12.519c-1.561,4.385-3.743,8.899-6.813,13.304c-3.063,4.391-6.995,8.679-12.04,12.591
		c-0.116,0.084-0.752,0.569-1.716,1.282c-0.972,0.712-2.273,1.657-3.712,2.675c-1.438,1.017-3.004,2.104-4.521,3.102
		c-1.516,0.998-2.966,1.904-4.171,2.565c-0.02,0.013-0.123,0.064-0.278,0.168c-0.148,0.091-0.337,0.233-0.53,0.408
		c-0.194,0.175-0.376,0.395-0.525,0.647c-0.142,0.253-0.232,0.544-0.232,0.861c0,0.169,0.207,0.608,0.667,1.179
		s1.179,1.27,2.215,1.942c1.029,0.688,2.376,1.348,4.087,1.833c1.716,0.499,3.795,0.823,6.295,0.843H1747.791z M1742.636,519.437
		v-54.378c0-0.311-0.064-0.596-0.181-0.867c-0.11-0.26-0.278-0.499-0.479-0.699c-0.2-0.195-0.435-0.357-0.699-0.467
		c-0.266-0.117-0.551-0.175-0.855-0.175l-91.113,0.026c-4.935-0.021-9.041-0.862-12.429-2.139c-3.393-1.263-6.067-2.973-8.121-4.728
		c-2.066-1.755-3.51-3.556-4.442-5.032c-0.939-1.464-1.36-2.604-1.38-3.019c0.052-0.608,0.123-0.983,0.376-1.314
		c0.252-0.311,0.673-0.569,1.425-0.933c0.757-0.355,1.833-0.822,3.394-1.561c1.567-0.726,3.607-1.729,6.288-3.16
		c1.173-0.635,2.345-1.289,3.491-1.982c1.141-0.687,2.26-1.398,3.349-2.144c1.088-0.745,2.138-1.509,3.135-2.3
		c1.004-0.776,1.949-1.579,2.824-2.402c3.037-2.817,5.782-5.764,8.205-8.892c2.416-3.122,4.495-6.399,6.212-9.923
		c1.709-3.504,3.03-7.241,3.931-11.224c0.9-3.996,1.373-8.245,1.373-12.817c0-2.914-0.129-6.179-0.596-9.676
		c-0.473-3.491-1.282-7.215-2.655-11.063c-1.367-3.841-3.29-7.811-5.984-11.774s-6.159-7.928-10.602-11.787
		c-4.58-3.957-9.482-6.976-14.282-9.274c-4.792-2.306-9.468-3.887-13.581-4.981c-4.106-1.094-7.637-1.689-10.155-2.014
		c-2.519-0.323-4.003-0.376-4.021-0.376h-135.977c-0.291,0-0.583,0.065-0.842,0.175c-0.266,0.111-0.512,0.272-0.712,0.473
		c-0.202,0.195-0.363,0.435-0.48,0.7c-0.109,0.259-0.174,0.551-0.174,0.854v188.871c0,0.298,0.058,0.583,0.168,0.854
		c0.123,0.26,0.271,0.505,0.473,0.699c0.201,0.201,0.447,0.363,0.713,0.479c0.265,0.117,0.557,0.169,0.854,0.169h63.107
		c0.305,0,0.597-0.052,0.861-0.169c0.266-0.116,0.506-0.278,0.707-0.479c0.2-0.194,0.362-0.439,0.473-0.699
		c0.11-0.271,0.168-0.557,0.168-0.854v-64.676c0-0.259,0.02-0.466,0.045-0.66c0.033-0.182,0.078-0.33,0.13-0.453
		c0.059-0.124,0.116-0.215,0.188-0.285c0.083-0.064,0.161-0.123,0.252-0.143c0.272-0.006,0.569,0.078,0.842,0.213
		c0.278,0.137,0.551,0.324,0.79,0.513c0.24,0.193,0.447,0.382,0.59,0.531c0.155,0.148,0.246,0.259,0.266,0.284l53.341,53.399
		c3.154,3.193,6.891,5.629,10.72,7.494c3.827,1.865,7.745,3.147,11.275,4.028c3.529,0.881,6.657,1.373,8.912,1.646
		c2.26,0.259,3.633,0.311,3.64,0.311h115.03c0.311,0,0.603-0.052,0.868-0.169c0.266-0.116,0.499-0.278,0.699-0.479
		c0.2-0.194,0.363-0.439,0.473-0.699C1742.571,520.02,1742.636,519.734,1742.636,519.437"/>
	<path fill="#FFE700" d="M1230.732,320.974c0.304,0,0.596,0.071,0.868,0.175c0.266,0.117,0.499,0.272,0.693,0.479
		c0.208,0.201,0.37,0.44,0.473,0.706c0.117,0.259,0.181,0.551,0.181,0.849v63.056c0,0.298-0.064,0.583-0.181,0.855
		c-0.104,0.253-0.265,0.499-0.473,0.699c-0.194,0.194-0.427,0.363-0.693,0.479c-0.271,0.109-0.563,0.175-0.868,0.175h-85.582
		c-0.298,0-0.589,0.071-0.849,0.168c-0.259,0.123-0.492,0.279-0.687,0.473c-0.2,0.195-0.362,0.428-0.473,0.693
		c-0.116,0.26-0.174,0.544-0.174,0.842v136.203c0,0.305-0.059,0.603-0.168,0.861c-0.117,0.266-0.272,0.505-0.473,0.699
		c-0.2,0.208-0.44,0.363-0.706,0.479c-0.265,0.104-0.557,0.169-0.861,0.169l-69.708-0.033c-0.304,0-0.595-0.058-0.861-0.175
		c-0.266-0.104-0.505-0.271-0.706-0.466c-0.194-0.201-0.356-0.44-0.466-0.699c-0.116-0.266-0.175-0.558-0.175-0.868V390.656
		c0-0.312-0.065-0.597-0.181-0.862c-0.104-0.271-0.266-0.498-0.46-0.706c-0.201-0.193-0.44-0.35-0.706-0.466
		c-0.272-0.104-0.557-0.175-0.868-0.175h-94.15c-0.201,0.071-0.389,0.162-0.55,0.291c-0.169,0.117-0.305,0.272-0.415,0.454
		c-0.117,0.168-0.207,0.375-0.266,0.582c-0.059,0.215-0.091,0.44-0.091,0.661c0,0.155,0.02,0.311,0.052,0.453
		s0.078,0.279,0.143,0.415c0.059,0.122,0.136,0.246,0.22,0.362c0.084,0.117,0.188,0.221,0.292,0.311c0.926,0.959,2.739,2.863,5,5.24
		c2.26,2.377,4.974,5.245,7.707,8.153c2.733,2.922,5.492,5.882,7.843,8.459c2.357,2.577,4.308,4.754,5.434,6.101
		c1.25,1.503,2.921,3.459,4.728,5.946c1.8,2.486,3.743,5.505,5.518,9.145c1.781,3.634,3.394,7.889,4.579,12.823
		c1.179,4.941,1.911,10.583,1.911,16.995c0,6.411-0.862,12.176-2.215,17.305c-1.36,5.117-3.219,9.586-5.194,13.381
		c-1.982,3.796-4.1,6.918-5.978,9.353c-1.878,2.436-3.511,4.171-4.547,5.207s-2.765,2.746-5.194,4.702
		c-2.429,1.969-5.57,4.21-9.424,6.321c-3.86,2.099-8.439,4.073-13.756,5.519c-5.317,1.45-11.366,2.376-18.179,2.376l-197.886,0.033
		c-0.298,0-0.583-0.065-0.849-0.182c-0.259-0.11-0.505-0.272-0.699-0.467c-0.201-0.207-0.369-0.446-0.479-0.712
		c-0.117-0.259-0.181-0.544-0.181-0.849v-69.125c0-0.311,0.058-0.596,0.175-0.854c0.11-0.26,0.271-0.499,0.466-0.699
		c0.201-0.208,0.447-0.363,0.706-0.479c0.266-0.11,0.557-0.175,0.862-0.175H916.5c0.35,0,0.687-0.071,0.984-0.201
		c0.305-0.13,0.577-0.311,0.803-0.544c0.227-0.22,0.408-0.505,0.538-0.81c0.123-0.305,0.195-0.641,0.195-0.991
		c0-0.162-0.014-0.323-0.045-0.466c-0.026-0.155-0.078-0.292-0.13-0.428c-0.052-0.143-0.123-0.272-0.207-0.395
		c-0.078-0.124-0.162-0.253-0.266-0.369c-0.221-0.233-1.483-1.522-3.349-3.472s-4.339-4.547-7.021-7.396
		c-2.675-2.85-5.551-5.958-8.206-8.893c-2.656-2.947-5.097-5.744-6.917-7.985c-0.168-0.22-1.14-1.464-2.506-3.563
		c-1.354-2.111-3.096-5.064-4.812-8.717c-1.723-3.653-3.426-8.006-4.689-12.896c-1.276-4.89-2.111-10.311-2.111-16.113
		c0-5.81,0.9-11.225,2.416-16.186c1.509-4.961,3.633-9.481,6.069-13.497c2.435-4.021,5.181-7.552,7.946-10.53
		c2.759-2.993,5.544-5.428,8.044-7.273c2.494-1.859,5.453-3.641,8.679-5.279c3.231-1.638,6.729-3.134,10.304-4.384
		c3.575-1.25,7.234-2.287,10.758-2.999c3.536-0.699,6.949-1.107,10.058-1.107L1230.732,320.974z M1225.544,378.855v-48.29
		c0-0.298-0.064-0.596-0.174-0.854c-0.11-0.272-0.272-0.505-0.467-0.706c-0.207-0.201-0.447-0.355-0.712-0.473
		c-0.259-0.11-0.55-0.169-0.855-0.169H943.035c-2.59,0-5.524,0.344-8.607,0.972c-3.096,0.622-6.328,1.522-9.541,2.643
		c-3.206,1.114-6.373,2.436-9.313,3.912s-5.654,3.096-7.947,4.793c-2.48,1.833-5.065,4.17-7.552,6.93
		c-2.475,2.759-4.851,5.952-6.917,9.501c-2.066,3.556-3.828,7.475-5.064,11.684c-1.244,4.217-1.963,8.724-1.963,13.459
		c0,5.064,0.784,9.89,1.95,14.268s2.726,8.329,4.281,11.632c1.567,3.316,3.128,5.991,4.301,7.843
		c1.172,1.859,1.956,2.883,1.962,2.896c1.736,2.138,4.158,4.903,6.826,7.856c2.655,2.946,5.563,6.074,8.264,8.944
		c2.701,2.875,5.194,5.492,7.04,7.422c1.853,1.923,3.044,3.16,3.147,3.271c0.408,0.46,0.765,0.952,1.075,1.464
		c0.318,0.519,0.583,1.056,0.791,1.612c0.213,0.551,0.375,1.127,0.485,1.71c0.104,0.583,0.169,1.179,0.169,1.774
		c0,1.373-0.279,2.682-0.784,3.86c-0.505,1.198-1.237,2.267-2.131,3.167c-0.894,0.9-1.962,1.619-3.147,2.131
		c-1.191,0.492-2.494,0.777-3.86,0.777l-156.889-0.039c-0.304,0-0.596,0.064-0.861,0.182c-0.266,0.116-0.505,0.278-0.706,0.479
		c-0.194,0.207-0.356,0.439-0.466,0.699c-0.117,0.271-0.175,0.557-0.175,0.854v54.353c0,0.31,0.058,0.596,0.175,0.854
		c0.11,0.266,0.271,0.505,0.466,0.712c0.201,0.194,0.44,0.351,0.706,0.467c0.266,0.109,0.557,0.168,0.861,0.168l190.484,0.032
		c2.797,0,5.919-0.175,9.235-0.667c3.316-0.492,6.826-1.288,10.427-2.525c3.594-1.218,7.286-2.889,10.933-5.11
		c3.646-2.222,7.267-5,10.738-8.465c0.919-0.926,2.364-2.486,4.015-4.65c1.645-2.169,3.504-4.941,5.24-8.315
		c1.743-3.355,3.368-7.313,4.553-11.826c1.186-4.521,1.943-9.611,1.943-15.246c0-5.544-0.589-10.414-1.561-14.688
		c-0.958-4.288-2.299-7.979-3.801-11.16c-1.497-3.18-3.154-5.867-4.754-8.128c-1.606-2.267-3.141-4.112-4.41-5.621
		c-0.953-1.166-2.455-2.856-4.307-4.91c-1.858-2.046-4.081-4.455-6.483-7.027c-2.396-2.57-4.98-5.323-7.571-8.069
		c-2.597-2.739-5.194-5.479-7.617-8.018c-0.466-0.46-0.88-0.952-1.243-1.483c-0.363-0.519-0.673-1.075-0.92-1.658
		c-0.24-0.57-0.434-1.165-0.563-1.774c-0.123-0.608-0.188-1.23-0.188-1.865c0-1.049,0.162-2.072,0.467-3.031
		c0.317-0.952,0.764-1.839,1.34-2.636s1.282-1.496,2.079-2.079c0.803-0.569,1.703-1.023,2.681-1.321
		c0.175-0.052,0.363-0.104,0.538-0.143c0.181-0.032,0.363-0.064,0.538-0.091c0.181-0.025,0.362-0.039,0.537-0.052
		c0.188-0.025,0.369-0.025,0.538-0.025h96.397c1.017,0,1.988,0.207,2.876,0.583c0.881,0.375,1.678,0.913,2.338,1.58
		c0.661,0.674,1.198,1.464,1.58,2.357c0.369,0.881,0.577,1.853,0.577,2.869l0.026,130.964c0,0.31,0.058,0.596,0.168,0.854
		c0.117,0.266,0.272,0.505,0.473,0.712c0.201,0.194,0.434,0.351,0.7,0.467c0.259,0.109,0.544,0.168,0.842,0.168l54.935,0.032
		c0.305,0,0.589-0.058,0.855-0.175c0.265-0.116,0.492-0.271,0.699-0.479c0.208-0.2,0.369-0.439,0.479-0.699
		c0.11-0.259,0.181-0.557,0.181-0.842l-0.039-131.002c0-1.017,0.208-1.988,0.59-2.869c0.375-0.894,0.913-1.684,1.581-2.357
		c0.673-0.667,1.476-1.205,2.357-1.58c0.887-0.376,1.858-0.583,2.875-0.583h80.368c0.305,0,0.596-0.052,0.855-0.168
		c0.266-0.117,0.505-0.272,0.712-0.474c0.194-0.2,0.356-0.434,0.467-0.705C1225.479,379.451,1225.544,379.153,1225.544,378.855"/>
	<path d="M1742.895,598.997v-48.289c0-0.298-0.064-0.583-0.174-0.854c-0.11-0.272-0.272-0.506-0.473-0.7
		c-0.201-0.207-0.435-0.362-0.7-0.466c-0.266-0.117-0.563-0.182-0.868-0.182h-118.438c-2.584,0-5.518,0.35-8.606,0.972
		c-3.09,0.622-6.328,1.528-9.533,2.643c-3.206,1.113-6.381,2.435-9.314,3.925c-2.939,1.464-5.66,3.082-7.953,4.792
		c-2.474,1.826-5.059,4.158-7.539,6.917c-2.48,2.76-4.863,5.959-6.924,9.508c-2.072,3.55-3.821,7.461-5.07,11.671
		c-1.238,4.21-1.963,8.704-1.963,13.433c0,5.077,0.784,9.909,1.949,14.287c1.18,4.392,2.727,8.329,4.295,11.645
		c1.554,3.316,3.115,5.997,4.287,7.851c1.179,1.852,1.956,2.875,1.969,2.888c1.735,2.151,4.151,4.909,6.813,7.863
		c2.675,2.94,5.576,6.075,8.271,8.938c2.701,2.875,5.194,5.505,7.034,7.435c1.839,1.918,3.03,3.148,3.121,3.265
		c0.414,0.453,0.783,0.945,1.101,1.451c0.318,0.518,0.584,1.05,0.804,1.605c0.207,0.558,0.376,1.141,0.479,1.724
		c0.116,0.582,0.168,1.179,0.168,1.774c0,1.372-0.278,2.681-0.783,3.873c-0.506,1.191-1.225,2.267-2.131,3.16
		c-0.895,0.895-1.963,1.619-3.148,2.125c-1.185,0.504-2.486,0.776-3.859,0.776h-108.179c-4.936-0.025-9.048-0.867-12.441-2.137
		c-3.4-1.27-6.069-2.979-8.136-4.729c-2.059-1.762-3.516-3.562-4.448-5.038c-0.939-1.465-1.367-2.591-1.394-3.019
		c0.065-0.608,0.15-0.984,0.402-1.295c0.246-0.337,0.674-0.583,1.425-0.946c0.751-0.362,1.833-0.829,3.394-1.554
		c1.567-0.738,3.614-1.736,6.309-3.174c1.166-0.621,2.324-1.283,3.465-1.969c1.141-0.7,2.273-1.412,3.349-2.163
		c1.088-0.739,2.144-1.503,3.141-2.28c0.991-0.79,1.943-1.593,2.812-2.409c3.03-2.823,5.783-5.777,8.205-8.886
		c2.416-3.122,4.509-6.412,6.218-9.922c1.71-3.511,3.044-7.241,3.944-11.23c0.906-4.003,1.38-8.252,1.38-12.823
		c0-2.915-0.13-6.166-0.597-9.663c-0.473-3.498-1.281-7.229-2.654-11.063c-1.374-3.848-3.297-7.812-5.998-11.787
		c-2.701-3.964-6.165-7.928-10.615-11.775c-4.579-3.963-9.488-6.981-14.281-9.287c-4.792-2.292-9.475-3.886-13.581-4.974
		c-4.106-1.102-7.648-1.684-10.155-2.008c-2.519-0.337-4.016-0.389-4.028-0.389h-135.944c-0.304,0-0.595,0.064-0.867,0.182
		c-0.26,0.104-0.499,0.259-0.693,0.466c-0.2,0.194-0.363,0.428-0.473,0.7c-0.109,0.271-0.175,0.557-0.175,0.854v188.884
		c0,0.297,0.065,0.582,0.175,0.842c0.109,0.259,0.272,0.505,0.467,0.712c0.193,0.194,0.427,0.362,0.693,0.467
		c0.258,0.116,0.55,0.181,0.848,0.181h63.134c0.298,0,0.589-0.064,0.855-0.181c0.259-0.104,0.505-0.272,0.699-0.467
		c0.2-0.207,0.369-0.453,0.479-0.712c0.122-0.26,0.182-0.545,0.182-0.842l-0.033-64.688c0-0.26,0.02-0.467,0.046-0.648
		c0.025-0.181,0.071-0.336,0.122-0.466c0.059-0.116,0.123-0.207,0.195-0.285c0.07-0.064,0.161-0.116,0.246-0.143
		c0.278,0,0.569,0.078,0.848,0.221c0.285,0.143,0.551,0.324,0.79,0.518c0.24,0.182,0.44,0.376,0.59,0.531
		c0.155,0.143,0.246,0.26,0.266,0.272l53.341,53.405c3.154,3.199,6.897,5.635,10.726,7.488c3.834,1.864,7.753,3.159,11.282,4.04
		c3.53,0.895,6.664,1.386,8.918,1.646c2.254,0.272,3.634,0.311,3.647,0.311l165.703-0.025c2.791,0,5.899-0.194,9.217-0.674
		c3.31-0.479,6.825-1.27,10.413-2.513c3.602-1.218,7.28-2.889,10.933-5.104c3.647-2.229,7.267-5.013,10.732-8.484
		c0.933-0.92,2.383-2.474,4.035-4.638c1.658-2.163,3.51-4.935,5.252-8.303c1.742-3.354,3.368-7.319,4.554-11.839
		c1.197-4.521,1.942-9.611,1.942-15.259c0-5.544-0.59-10.402-1.554-14.676c-0.966-4.275-2.307-7.967-3.803-11.153
		c-1.502-3.187-3.16-5.854-4.754-8.135c-1.6-2.268-3.146-4.119-4.41-5.635c-0.965-1.152-2.455-2.837-4.32-4.896
		c-1.852-2.033-4.073-4.442-6.47-7.007c-2.402-2.578-4.98-5.324-7.577-8.07c-2.585-2.732-5.188-5.479-7.61-8.018
		c-0.479-0.467-0.901-0.972-1.257-1.503c-0.362-0.519-0.667-1.075-0.919-1.645c-0.24-0.571-0.429-1.166-0.558-1.775
		c-0.123-0.608-0.188-1.23-0.188-1.852c0-1.063,0.168-2.086,0.473-3.045c0.311-0.945,0.771-1.839,1.341-2.629
		c0.576-0.804,1.27-1.502,2.072-2.072c0.803-0.583,1.703-1.036,2.688-1.335c0.182-0.052,0.35-0.104,0.531-0.143
		c0.182-0.025,0.351-0.064,0.531-0.091c0.182-0.025,0.356-0.038,0.544-0.052c0.175-0.013,0.363-0.025,0.544-0.025h88.988
		c0.305,0,0.597-0.052,0.854-0.155c0.267-0.116,0.506-0.285,0.7-0.479c0.201-0.207,0.369-0.44,0.486-0.699
		C1742.83,599.593,1742.895,599.308,1742.895,598.997 M1442.653,623.245c-1.141,2.475-2.733,4.457-4.508,6.049
		c-1.787,1.581-3.744,2.747-5.635,3.588c-1.892,0.83-3.712,1.322-5.201,1.529c-0.084,0.013-0.168,0.026-0.253,0.052
		c-0.091,0-0.168,0.013-0.252,0.026c-0.084,0-0.175,0.013-0.266,0.013s-0.181,0-0.271,0h-51.839c-0.305,0-0.597-0.064-0.861-0.168
		c-0.266-0.104-0.506-0.272-0.7-0.466c-0.201-0.208-0.362-0.441-0.473-0.7c-0.11-0.272-0.175-0.557-0.175-0.868v-36.696
		c0-0.298,0.064-0.583,0.175-0.842c0.11-0.272,0.271-0.506,0.473-0.713c0.194-0.194,0.435-0.362,0.7-0.466
		c0.265-0.117,0.557-0.182,0.861-0.182h48.056c2.656,0,5.356,0.402,7.915,1.244s4.98,2.11,7.072,3.834
		c2.085,1.723,3.848,3.886,5.084,6.527c1.23,2.644,1.949,5.766,1.949,9.366C1444.505,617.845,1443.799,620.784,1442.653,623.245"/>
	<path fill="none" stroke="#000000" stroke-width="3.4686" stroke-miterlimit="10" d="M1742.895,598.997v-48.289
		c0-0.298-0.064-0.583-0.174-0.854c-0.11-0.272-0.272-0.506-0.473-0.7c-0.201-0.207-0.435-0.362-0.7-0.466
		c-0.266-0.117-0.563-0.182-0.868-0.182h-118.438c-2.584,0-5.518,0.35-8.606,0.972c-3.09,0.622-6.328,1.528-9.533,2.643
		c-3.206,1.113-6.381,2.435-9.314,3.925c-2.939,1.464-5.66,3.082-7.953,4.792c-2.474,1.826-5.059,4.158-7.539,6.917
		c-2.48,2.76-4.863,5.959-6.924,9.508c-2.072,3.55-3.821,7.461-5.07,11.671c-1.238,4.21-1.963,8.704-1.963,13.433
		c0,5.077,0.784,9.909,1.949,14.287c1.18,4.392,2.727,8.329,4.295,11.645c1.554,3.316,3.115,5.997,4.287,7.851
		c1.179,1.852,1.956,2.875,1.969,2.888c1.735,2.151,4.151,4.909,6.813,7.863c2.675,2.94,5.576,6.075,8.271,8.938
		c2.701,2.875,5.194,5.505,7.034,7.435c1.839,1.918,3.03,3.148,3.121,3.265c0.414,0.453,0.783,0.945,1.101,1.451
		c0.318,0.518,0.584,1.05,0.804,1.605c0.207,0.558,0.376,1.141,0.479,1.724c0.116,0.582,0.168,1.179,0.168,1.774
		c0,1.372-0.278,2.681-0.783,3.873c-0.506,1.191-1.225,2.267-2.131,3.16c-0.895,0.895-1.963,1.619-3.148,2.125
		c-1.185,0.504-2.486,0.776-3.859,0.776h-108.179c-4.936-0.025-9.048-0.867-12.441-2.137c-3.4-1.27-6.069-2.979-8.136-4.729
		c-2.059-1.762-3.516-3.562-4.448-5.038c-0.939-1.465-1.367-2.591-1.394-3.019c0.065-0.608,0.15-0.984,0.402-1.295
		c0.246-0.337,0.674-0.583,1.425-0.946c0.751-0.362,1.833-0.829,3.394-1.554c1.567-0.738,3.614-1.736,6.309-3.174
		c1.166-0.621,2.324-1.283,3.465-1.969c1.141-0.7,2.273-1.412,3.349-2.163c1.088-0.739,2.144-1.503,3.141-2.28
		c0.991-0.79,1.943-1.593,2.812-2.409c3.03-2.823,5.783-5.777,8.205-8.886c2.416-3.122,4.509-6.412,6.218-9.922
		c1.71-3.511,3.044-7.241,3.944-11.23c0.906-4.003,1.38-8.252,1.38-12.823c0-2.915-0.13-6.166-0.597-9.663
		c-0.473-3.498-1.281-7.229-2.654-11.063c-1.374-3.848-3.297-7.812-5.998-11.787c-2.701-3.964-6.165-7.928-10.615-11.775
		c-4.579-3.963-9.488-6.981-14.281-9.287c-4.792-2.292-9.475-3.886-13.581-4.974c-4.106-1.102-7.648-1.684-10.155-2.008
		c-2.519-0.337-4.016-0.389-4.028-0.389h-135.944c-0.304,0-0.595,0.064-0.867,0.182c-0.26,0.104-0.499,0.259-0.693,0.466
		c-0.2,0.194-0.363,0.428-0.473,0.7c-0.109,0.271-0.175,0.557-0.175,0.854v188.884c0,0.297,0.065,0.582,0.175,0.842
		c0.109,0.259,0.272,0.505,0.467,0.712c0.193,0.194,0.427,0.362,0.693,0.467c0.258,0.116,0.55,0.181,0.848,0.181h63.134
		c0.298,0,0.589-0.064,0.855-0.181c0.259-0.104,0.505-0.272,0.699-0.467c0.2-0.207,0.369-0.453,0.479-0.712
		c0.122-0.26,0.182-0.545,0.182-0.842l-0.033-64.688c0-0.26,0.02-0.467,0.046-0.648c0.025-0.181,0.071-0.336,0.122-0.466
		c0.059-0.116,0.123-0.207,0.195-0.285c0.07-0.064,0.161-0.116,0.246-0.143c0.278,0,0.569,0.078,0.848,0.221
		c0.285,0.143,0.551,0.324,0.79,0.518c0.24,0.182,0.44,0.376,0.59,0.531c0.155,0.143,0.246,0.26,0.266,0.272l53.341,53.405
		c3.154,3.199,6.897,5.635,10.726,7.488c3.834,1.864,7.753,3.159,11.282,4.04c3.53,0.895,6.664,1.386,8.918,1.646
		c2.254,0.272,3.634,0.311,3.647,0.311l165.703-0.025c2.791,0,5.899-0.194,9.217-0.674c3.31-0.479,6.825-1.27,10.413-2.513
		c3.602-1.218,7.28-2.889,10.933-5.104c3.647-2.229,7.267-5.013,10.732-8.484c0.933-0.92,2.383-2.474,4.035-4.638
		c1.658-2.163,3.51-4.935,5.252-8.303c1.742-3.354,3.368-7.319,4.554-11.839c1.197-4.521,1.942-9.611,1.942-15.259
		c0-5.544-0.59-10.402-1.554-14.676c-0.966-4.275-2.307-7.967-3.803-11.153c-1.502-3.187-3.16-5.854-4.754-8.135
		c-1.6-2.268-3.146-4.119-4.41-5.635c-0.965-1.152-2.455-2.837-4.32-4.896c-1.852-2.033-4.073-4.442-6.47-7.007
		c-2.402-2.578-4.98-5.324-7.577-8.07c-2.585-2.732-5.188-5.479-7.61-8.018c-0.479-0.467-0.901-0.972-1.257-1.503
		c-0.362-0.519-0.667-1.075-0.919-1.645c-0.24-0.571-0.429-1.166-0.558-1.775c-0.123-0.608-0.188-1.23-0.188-1.852
		c0-1.063,0.168-2.086,0.473-3.045c0.311-0.945,0.771-1.839,1.341-2.629c0.576-0.804,1.27-1.502,2.072-2.072
		c0.803-0.583,1.703-1.036,2.688-1.335c0.182-0.052,0.35-0.104,0.531-0.143c0.182-0.025,0.351-0.064,0.531-0.091
		c0.182-0.025,0.356-0.038,0.544-0.052c0.175-0.013,0.363-0.025,0.544-0.025h88.988c0.305,0,0.597-0.052,0.854-0.155
		c0.267-0.116,0.506-0.285,0.7-0.479c0.201-0.207,0.369-0.44,0.486-0.699C1742.83,599.593,1742.895,599.308,1742.895,598.997
		 M1442.653,623.245c-1.141,2.475-2.733,4.457-4.508,6.049c-1.787,1.581-3.744,2.747-5.635,3.588
		c-1.892,0.83-3.712,1.322-5.201,1.529c-0.084,0.013-0.168,0.026-0.253,0.052c-0.091,0-0.168,0.013-0.252,0.026
		c-0.084,0-0.175,0.013-0.266,0.013s-0.181,0-0.271,0h-51.839c-0.305,0-0.597-0.064-0.861-0.168c-0.266-0.104-0.506-0.272-0.7-0.466
		c-0.201-0.208-0.362-0.441-0.473-0.7c-0.11-0.272-0.175-0.557-0.175-0.868v-36.696c0-0.298,0.064-0.583,0.175-0.842
		c0.11-0.272,0.271-0.506,0.473-0.713c0.194-0.194,0.435-0.362,0.7-0.466c0.265-0.117,0.557-0.182,0.861-0.182h48.056
		c2.656,0,5.356,0.402,7.915,1.244s4.98,2.11,7.072,3.834c2.085,1.723,3.848,3.886,5.084,6.527c1.23,2.644,1.949,5.766,1.949,9.366
		C1444.505,617.845,1443.799,620.784,1442.653,623.245z"/>
	<path d="M1058.662,550.073c0.006-0.246-0.02-0.479-0.078-0.674c-0.065-0.194-0.143-0.362-0.259-0.491
		c-0.11-0.13-0.24-0.234-0.389-0.299c-0.142-0.064-0.304-0.104-0.466-0.104h-61.398c-0.097,0-0.182,0.026-0.266,0.052
		c-0.078,0.052-0.149,0.104-0.207,0.169c-0.065,0.064-0.117,0.155-0.162,0.232c-0.039,0.091-0.071,0.182-0.091,0.285l-20.731,70.09
		c-0.045,0.168-0.117,0.35-0.201,0.492c-0.084,0.155-0.194,0.285-0.317,0.401c-0.123,0.117-0.259,0.207-0.421,0.26
		c-0.149,0.064-0.324,0.09-0.499,0.09c-0.213,0-0.395-0.025-0.557-0.09c-0.156-0.065-0.292-0.169-0.408-0.299
		c-0.11-0.13-0.214-0.271-0.298-0.466c-0.084-0.182-0.156-0.376-0.22-0.609l-21.528-69.895c-0.013-0.091-0.039-0.182-0.078-0.26
		c-0.045-0.077-0.09-0.155-0.162-0.232c-0.064-0.053-0.136-0.117-0.213-0.156c-0.091-0.038-0.175-0.064-0.272-0.064h-74.345
		l-20.362,70.607c-0.064,0.233-0.136,0.428-0.22,0.609c-0.084,0.194-0.188,0.336-0.298,0.466c-0.123,0.13-0.252,0.233-0.408,0.299
		c-0.162,0.064-0.343,0.09-0.55,0.09c-0.182,0-0.356-0.025-0.505-0.09c-0.162-0.053-0.298-0.143-0.427-0.26
		c-0.117-0.116-0.227-0.246-0.311-0.401c-0.084-0.143-0.155-0.324-0.201-0.492l-20.79-70.154c-0.013-0.077-0.039-0.168-0.078-0.233
		c-0.032-0.077-0.084-0.143-0.143-0.207c-0.052-0.052-0.117-0.104-0.182-0.143c-0.083-0.052-0.162-0.078-0.239-0.091h-66.884
		c-0.168,0-0.324,0.039-0.473,0.104c-0.143,0.064-0.272,0.143-0.376,0.26c-0.11,0.116-0.194,0.233-0.252,0.388
		c-0.058,0.155-0.097,0.312-0.097,0.479l59.112,191.073c0.045,0.154,0.109,0.284,0.174,0.4c0.065,0.117,0.156,0.221,0.24,0.312
		c0.091,0.077,0.201,0.155,0.311,0.194c0.11,0.052,0.246,0.077,0.382,0.077h57.577c0.104-0.013,0.201-0.051,0.304-0.116
		c0.091-0.064,0.188-0.143,0.279-0.246c0.084-0.091,0.162-0.194,0.227-0.312c0.065-0.104,0.11-0.22,0.142-0.336l28.595-91.048
		c0.045-0.182,0.11-0.35,0.194-0.506c0.091-0.143,0.188-0.271,0.311-0.389c0.129-0.104,0.266-0.182,0.428-0.246
		c0.155-0.064,0.324-0.09,0.505-0.09c0.221,0,0.408,0.025,0.583,0.077c0.182,0.064,0.337,0.142,0.466,0.246
		c0.129,0.116,0.24,0.246,0.331,0.401c0.084,0.143,0.149,0.324,0.188,0.506l27.792,91.346c0.039,0.104,0.084,0.194,0.155,0.285
		c0.059,0.077,0.13,0.155,0.214,0.207c0.084,0.064,0.175,0.104,0.272,0.143c0.104,0.026,0.201,0.052,0.304,0.052l58.011,0.025
		c0.142,0,0.265-0.025,0.382-0.077c0.11-0.039,0.22-0.117,0.311-0.194c0.091-0.091,0.175-0.194,0.24-0.324
		c0.072-0.13,0.124-0.259,0.169-0.414L1058.662,550.073"/>
	<path fill="none" stroke="#000000" stroke-width="3.4686" stroke-miterlimit="10" d="M1058.662,550.073
		c0.006-0.246-0.02-0.479-0.078-0.674c-0.065-0.194-0.143-0.362-0.259-0.491c-0.11-0.13-0.24-0.234-0.389-0.299
		c-0.142-0.064-0.304-0.104-0.466-0.104h-61.398c-0.097,0-0.182,0.026-0.266,0.052c-0.078,0.052-0.149,0.104-0.207,0.169
		c-0.065,0.064-0.117,0.155-0.162,0.232c-0.039,0.091-0.071,0.182-0.091,0.285l-20.731,70.09c-0.045,0.168-0.117,0.35-0.201,0.492
		c-0.084,0.155-0.194,0.285-0.317,0.401c-0.123,0.117-0.259,0.207-0.421,0.26c-0.149,0.064-0.324,0.09-0.499,0.09
		c-0.213,0-0.395-0.025-0.557-0.09c-0.156-0.065-0.292-0.169-0.408-0.299c-0.11-0.13-0.214-0.271-0.298-0.466
		c-0.084-0.182-0.156-0.376-0.22-0.609l-21.528-69.895c-0.013-0.091-0.039-0.182-0.078-0.26c-0.045-0.077-0.09-0.155-0.162-0.232
		c-0.064-0.053-0.136-0.117-0.213-0.156c-0.091-0.038-0.175-0.064-0.272-0.064h-74.345l-20.362,70.607
		c-0.064,0.233-0.136,0.428-0.22,0.609c-0.084,0.194-0.188,0.336-0.298,0.466c-0.123,0.13-0.252,0.233-0.408,0.299
		c-0.162,0.064-0.343,0.09-0.55,0.09c-0.182,0-0.356-0.025-0.505-0.09c-0.162-0.053-0.298-0.143-0.427-0.26
		c-0.117-0.116-0.227-0.246-0.311-0.401c-0.084-0.143-0.155-0.324-0.201-0.492l-20.79-70.154c-0.013-0.077-0.039-0.168-0.078-0.233
		c-0.032-0.077-0.084-0.143-0.143-0.207c-0.052-0.052-0.117-0.104-0.182-0.143c-0.083-0.052-0.162-0.078-0.239-0.091h-66.884
		c-0.168,0-0.324,0.039-0.473,0.104c-0.143,0.064-0.272,0.143-0.376,0.26c-0.11,0.116-0.194,0.233-0.252,0.388
		c-0.058,0.155-0.097,0.312-0.097,0.479l59.112,191.073c0.045,0.154,0.109,0.284,0.174,0.4c0.065,0.117,0.156,0.221,0.24,0.312
		c0.091,0.077,0.201,0.155,0.311,0.194c0.11,0.052,0.246,0.077,0.382,0.077h57.577c0.104-0.013,0.201-0.051,0.304-0.116
		c0.091-0.064,0.188-0.143,0.279-0.246c0.084-0.091,0.162-0.194,0.227-0.312c0.065-0.104,0.11-0.22,0.142-0.336l28.595-91.048
		c0.045-0.182,0.11-0.35,0.194-0.506c0.091-0.143,0.188-0.271,0.311-0.389c0.129-0.104,0.266-0.182,0.428-0.246
		c0.155-0.064,0.324-0.09,0.505-0.09c0.221,0,0.408,0.025,0.583,0.077c0.182,0.064,0.337,0.142,0.466,0.246
		c0.129,0.116,0.24,0.246,0.331,0.401c0.084,0.143,0.149,0.324,0.188,0.506l27.792,91.346c0.039,0.104,0.084,0.194,0.155,0.285
		c0.059,0.077,0.13,0.155,0.214,0.207c0.084,0.064,0.175,0.104,0.272,0.143c0.104,0.026,0.201,0.052,0.304,0.052l58.011,0.025
		c0.142,0,0.265-0.025,0.382-0.077c0.11-0.039,0.22-0.117,0.311-0.194c0.091-0.091,0.175-0.194,0.24-0.324
		c0.072-0.13,0.124-0.259,0.169-0.414L1058.662,550.073"/>
	<path d="M1212.481,550.319c-0.071-0.259-0.182-0.492-0.324-0.7c-0.148-0.22-0.317-0.4-0.524-0.569
		c-0.207-0.155-0.427-0.285-0.68-0.376c-0.252-0.091-0.524-0.155-0.803-0.168h-101.003c-0.285,0.013-0.557,0.077-0.803,0.168
		c-0.252,0.091-0.473,0.221-0.673,0.376c-0.2,0.169-0.375,0.35-0.524,0.569c-0.149,0.208-0.259,0.441-0.336,0.7l-57.39,189.635
		c0,0.259,0.052,0.492,0.149,0.713c0.091,0.22,0.22,0.414,0.389,0.595c0.175,0.156,0.37,0.299,0.589,0.39
		c0.221,0.091,0.467,0.142,0.719,0.142h58.646c0.149-0.051,0.285-0.129,0.414-0.22c0.124-0.104,0.233-0.207,0.337-0.337
		c0.097-0.13,0.181-0.259,0.253-0.401c0.078-0.143,0.123-0.298,0.162-0.453l8.627-27.525c0.078-0.169,0.168-0.312,0.272-0.454
		c0.117-0.13,0.246-0.259,0.395-0.362c0.142-0.104,0.305-0.182,0.479-0.246c0.168-0.064,0.356-0.091,0.55-0.104h79.041
		c0.188,0.013,0.375,0.039,0.55,0.104c0.168,0.064,0.33,0.142,0.479,0.246c0.149,0.104,0.272,0.232,0.389,0.362
		c0.104,0.143,0.201,0.285,0.272,0.454l8.814,27.525c0.032,0.155,0.091,0.311,0.156,0.453c0.078,0.143,0.162,0.271,0.266,0.401
		c0.11,0.13,0.22,0.233,0.343,0.337c0.136,0.091,0.272,0.169,0.434,0.22h57.389c0.259,0,0.505-0.051,0.726-0.142
		c0.22-0.091,0.421-0.233,0.583-0.39c0.168-0.181,0.298-0.375,0.395-0.595c0.085-0.221,0.136-0.454,0.136-0.713L1212.481,550.319z
		 M1188.479,670.68c-0.084,0.26-0.213,0.493-0.375,0.7c-0.168,0.194-0.363,0.375-0.583,0.53c-0.233,0.144-0.473,0.26-0.745,0.324
		h-50.246c-0.266-0.064-0.505-0.181-0.732-0.324c-0.227-0.155-0.427-0.336-0.583-0.53c-0.168-0.207-0.291-0.44-0.388-0.7
		c-0.084-0.259-0.13-0.518-0.13-0.815l25.486-83.405c0.084-0.233,0.181-0.454,0.285-0.648s0.227-0.362,0.337-0.505
		c0.13-0.143,0.252-0.246,0.388-0.324c0.124-0.077,0.266-0.116,0.402-0.116c0.129,0,0.246,0.039,0.355,0.091
		c0.124,0.065,0.233,0.155,0.35,0.272c0.11,0.116,0.207,0.258,0.311,0.414c0.097,0.155,0.188,0.35,0.272,0.544l25.738,83.678
		C1188.621,670.162,1188.569,670.421,1188.479,670.68"/>
	<path fill="none" stroke="#000000" stroke-width="3.4686" stroke-miterlimit="10" d="M1212.481,550.319
		c-0.071-0.259-0.182-0.492-0.324-0.7c-0.148-0.22-0.317-0.4-0.524-0.569c-0.207-0.155-0.427-0.285-0.68-0.376
		c-0.252-0.091-0.524-0.155-0.803-0.168h-101.003c-0.285,0.013-0.557,0.077-0.803,0.168c-0.252,0.091-0.473,0.221-0.673,0.376
		c-0.2,0.169-0.375,0.35-0.524,0.569c-0.149,0.208-0.259,0.441-0.336,0.7l-57.39,189.635c0,0.259,0.052,0.492,0.149,0.713
		c0.091,0.22,0.22,0.414,0.389,0.595c0.175,0.156,0.37,0.299,0.589,0.39c0.221,0.091,0.467,0.142,0.719,0.142h58.646
		c0.149-0.051,0.285-0.129,0.414-0.22c0.124-0.104,0.233-0.207,0.337-0.337c0.097-0.13,0.181-0.259,0.253-0.401
		c0.078-0.143,0.123-0.298,0.162-0.453l8.627-27.525c0.078-0.169,0.168-0.312,0.272-0.454c0.117-0.13,0.246-0.259,0.395-0.362
		c0.142-0.104,0.305-0.182,0.479-0.246c0.168-0.064,0.356-0.091,0.55-0.104h79.041c0.188,0.013,0.375,0.039,0.55,0.104
		c0.168,0.064,0.33,0.142,0.479,0.246c0.149,0.104,0.272,0.232,0.389,0.362c0.104,0.143,0.201,0.285,0.272,0.454l8.814,27.525
		c0.032,0.155,0.091,0.311,0.156,0.453c0.078,0.143,0.162,0.271,0.266,0.401c0.11,0.13,0.22,0.233,0.343,0.337
		c0.136,0.091,0.272,0.169,0.434,0.22h57.389c0.259,0,0.505-0.051,0.726-0.142c0.22-0.091,0.421-0.233,0.583-0.39
		c0.168-0.181,0.298-0.375,0.395-0.595c0.085-0.221,0.136-0.454,0.136-0.713L1212.481,550.319z M1188.479,670.68
		c-0.084,0.26-0.213,0.493-0.375,0.7c-0.168,0.194-0.363,0.375-0.583,0.53c-0.233,0.144-0.473,0.26-0.745,0.324h-50.246
		c-0.266-0.064-0.505-0.181-0.732-0.324c-0.227-0.155-0.427-0.336-0.583-0.53c-0.168-0.207-0.291-0.44-0.388-0.7
		c-0.084-0.259-0.13-0.518-0.13-0.815l25.486-83.405c0.084-0.233,0.181-0.454,0.285-0.648s0.227-0.362,0.337-0.505
		c0.13-0.143,0.252-0.246,0.388-0.324c0.124-0.077,0.266-0.116,0.402-0.116c0.129,0,0.246,0.039,0.355,0.091
		c0.124,0.065,0.233,0.155,0.35,0.272c0.11,0.116,0.207,0.258,0.311,0.414c0.097,0.155,0.188,0.35,0.272,0.544l25.738,83.678
		C1188.621,670.162,1188.569,670.421,1188.479,670.68z"/>
	<path fill="#FFE700" d="M1747.791,540.979c0.312,0,0.603,0.052,0.868,0.169c0.259,0.116,0.499,0.285,0.699,0.479
		c0.201,0.207,0.356,0.439,0.473,0.699c0.111,0.272,0.169,0.558,0.169,0.854v63.03c0,0.312-0.058,0.597-0.169,0.855
		c-0.116,0.271-0.271,0.505-0.473,0.712c-0.2,0.194-0.44,0.351-0.699,0.467c-0.266,0.104-0.557,0.168-0.868,0.168h-96.358
		c-0.207,0.078-0.395,0.182-0.557,0.298c-0.162,0.143-0.299,0.298-0.422,0.479c-0.109,0.182-0.2,0.376-0.259,0.583
		c-0.058,0.22-0.084,0.44-0.084,0.66c0,0.156,0.02,0.312,0.052,0.44c0.032,0.155,0.078,0.285,0.143,0.414
		c0.058,0.117,0.136,0.234,0.22,0.351c0.091,0.116,0.182,0.221,0.292,0.312c0.933,0.958,2.739,2.861,5,5.245
		c2.254,2.383,4.968,5.26,7.701,8.174c2.732,2.927,5.491,5.881,7.849,8.459c2.352,2.577,4.301,4.754,5.428,6.101
		c1.25,1.502,2.921,3.459,4.729,5.945c1.794,2.487,3.73,5.518,5.504,9.145c1.775,3.627,3.395,7.876,4.566,12.812
		c1.173,4.935,1.904,10.569,1.904,16.981c0,6.411-0.861,12.202-2.216,17.317c-1.359,5.13-3.212,9.6-5.193,13.395
		c-1.982,3.795-4.087,6.917-5.952,9.353c-1.878,2.436-3.51,4.183-4.54,5.206c-1.036,1.037-2.759,2.733-5.193,4.689
		c-2.43,1.97-5.564,4.21-9.424,6.309c-3.86,2.111-8.433,4.093-13.757,5.544c-5.317,1.451-11.366,2.384-18.174,2.384h-165.703
		c-0.312-0.013-2.015-0.053-4.644-0.324c-2.617-0.299-6.153-0.829-10.116-1.839c-3.964-1.011-8.361-2.487-12.7-4.664
		c-4.334-2.176-8.628-5.025-12.371-8.808l-42.221-42.344c-0.014,0-0.059-0.052-0.13-0.13c-0.078-0.077-0.175-0.168-0.285-0.259
		c-0.123-0.104-0.245-0.194-0.375-0.26c-0.124-0.078-0.253-0.129-0.37-0.129l-0.369,56.541c0,0.31-0.07,0.595-0.174,0.867
		c-0.117,0.272-0.279,0.505-0.48,0.699c-0.2,0.194-0.427,0.363-0.699,0.467c-0.259,0.116-0.557,0.182-0.861,0.182h-77.906
		c-0.305,0-0.603-0.065-0.861-0.182c-0.266-0.104-0.506-0.272-0.707-0.467c-0.207-0.194-0.362-0.427-0.473-0.699
		c-0.109-0.272-0.168-0.558-0.168-0.867V543.182c0-0.31,0.059-0.595,0.168-0.854c0.117-0.272,0.285-0.505,0.486-0.712
		c0.2-0.194,0.44-0.351,0.706-0.467c0.259-0.117,0.551-0.169,0.849-0.169l143.34,0.026c0.33,0,2.131,0.039,4.968,0.376
		c2.85,0.337,6.729,0.958,11.21,2.15c4.488,1.191,9.579,2.928,14.845,5.492c5.26,2.564,10.693,5.958,15.867,10.44
		c5.169,4.468,9.152,9.093,12.222,13.704c3.076,4.611,5.228,9.196,6.742,13.587c1.51,4.405,2.371,8.602,2.857,12.423
		c0.491,3.808,0.602,7.24,0.602,10.129c0,2.876-0.149,6.387-0.692,10.259c-0.545,3.886-1.483,8.148-3.038,12.526
		c-1.574,4.391-3.77,8.898-6.827,13.303c-3.069,4.404-7,8.679-12.046,12.591c-0.117,0.091-0.751,0.569-1.729,1.282
		c-0.965,0.712-2.267,1.658-3.697,2.682c-1.433,1.01-3.006,2.099-4.521,3.108c-1.515,1.01-2.973,1.917-4.178,2.578
		c-0.019,0.013-0.123,0.078-0.271,0.168c-0.143,0.091-0.337,0.233-0.524,0.401c-0.188,0.194-0.37,0.401-0.505,0.648
		c-0.144,0.246-0.234,0.53-0.234,0.854c0,0.155,0.202,0.596,0.668,1.179c0.459,0.57,1.179,1.256,2.215,1.943
		c1.03,0.673,2.377,1.333,4.087,1.826c1.717,0.492,3.795,0.828,6.302,0.841h108.146c0.343,0,0.68-0.077,0.978-0.206
		c0.305-0.13,0.576-0.311,0.797-0.545c0.232-0.232,0.42-0.505,0.544-0.803c0.13-0.311,0.2-0.635,0.2-0.984
		c0-0.168-0.013-0.336-0.045-0.479c-0.032-0.155-0.071-0.298-0.123-0.44c-0.059-0.143-0.13-0.271-0.207-0.401
		c-0.078-0.129-0.175-0.232-0.271-0.35c-0.228-0.233-1.484-1.528-3.343-3.471c-1.865-1.957-4.346-4.561-7.026-7.41
		c-2.669-2.85-5.545-5.958-8.2-8.911c-2.662-2.941-5.11-5.738-6.91-7.979c-0.182-0.22-1.16-1.464-2.507-3.563
		c-1.36-2.099-3.108-5.051-4.824-8.704c-1.724-3.653-3.42-8.006-4.696-12.902c-1.263-4.883-2.098-10.31-2.098-16.126
		c0-5.79,0.899-11.204,2.409-16.165c1.516-4.962,3.633-9.47,6.067-13.498c2.436-4.015,5.182-7.552,7.941-10.53
		c2.765-2.993,5.551-5.428,8.05-7.293c2.494-1.84,5.453-3.627,8.691-5.259c3.219-1.645,6.724-3.135,10.298-4.392
		c3.575-1.256,7.228-2.279,10.759-3.005c3.528-0.712,6.948-1.102,10.051-1.102H1747.791z M1742.636,598.854v-48.276
		c0-0.311-0.064-0.596-0.175-0.868c-0.109-0.259-0.272-0.505-0.473-0.698c-0.2-0.208-0.434-0.363-0.699-0.479
		c-0.266-0.104-0.563-0.169-0.868-0.169h-118.438c-2.584,0-5.518,0.35-8.607,0.972s-6.334,1.528-9.533,2.642
		c-3.206,1.114-6.38,2.436-9.314,3.913c-2.946,1.477-5.66,3.096-7.952,4.806c-2.48,1.826-5.059,4.158-7.539,6.916
		c-2.48,2.76-4.864,5.946-6.924,9.495c-2.072,3.563-3.827,7.474-5.071,11.685c-1.236,4.209-1.962,8.704-1.962,13.432
		c0,5.077,0.777,9.896,1.949,14.287c1.166,4.391,2.727,8.342,4.288,11.645c1.561,3.304,3.121,5.998,4.294,7.851
		c1.179,1.852,1.955,2.875,1.969,2.888c1.735,2.139,4.151,4.909,6.813,7.85c2.669,2.954,5.571,6.076,8.271,8.951
		c2.7,2.876,5.194,5.492,7.027,7.423c1.846,1.93,3.037,3.16,3.128,3.276c0.414,0.44,0.783,0.933,1.102,1.451
		c0.316,0.518,0.582,1.049,0.802,1.605c0.208,0.558,0.369,1.127,0.48,1.724c0.116,0.582,0.168,1.179,0.168,1.787
		c0,1.36-0.279,2.668-0.783,3.859c-0.506,1.192-1.225,2.254-2.132,3.148c-0.893,0.906-1.969,1.632-3.146,2.137
		c-1.187,0.506-2.494,0.777-3.86,0.777h-108.18c-4.935-0.026-9.047-0.867-12.44-2.137c-3.401-1.27-6.068-2.979-8.135-4.728
		c-2.061-1.763-3.518-3.563-4.45-5.04c-0.938-1.463-1.366-2.603-1.392-3.018c0.064-0.608,0.142-0.984,0.396-1.308
		c0.252-0.324,0.68-0.57,1.431-0.946c0.745-0.349,1.833-0.815,3.394-1.541c1.567-0.739,3.613-1.736,6.309-3.174
		c1.159-0.635,2.318-1.282,3.465-1.981c1.14-0.687,2.26-1.399,3.348-2.15c1.089-0.738,2.138-1.503,3.135-2.28
		c0.998-0.79,1.943-1.593,2.817-2.422c3.031-2.811,5.784-5.751,8.206-8.886c2.416-3.109,4.508-6.399,6.211-9.923
		c1.716-3.497,3.051-7.228,3.951-11.218c0.906-4.002,1.379-8.25,1.379-12.823c0-2.914-0.13-6.178-0.596-9.676
		c-0.479-3.483-1.289-7.215-2.655-11.062c-1.373-3.848-3.303-7.811-5.997-11.774c-2.7-3.964-6.166-7.928-10.622-11.788
		c-4.572-3.95-9.482-6.969-14.274-9.274c-4.799-2.306-9.475-3.886-13.581-4.974c-4.106-1.101-7.648-1.696-10.162-2.021
		c-2.513-0.324-4.009-0.376-4.021-0.376H1307.04c-0.306,0-0.597,0.064-0.869,0.169c-0.258,0.116-0.498,0.271-0.692,0.479
		c-0.201,0.193-0.362,0.439-0.473,0.698c-0.11,0.272-0.175,0.558-0.175,0.868v188.857c0,0.298,0.064,0.596,0.175,0.855
		c0.11,0.259,0.271,0.505,0.467,0.699c0.194,0.207,0.427,0.362,0.692,0.492c0.26,0.104,0.544,0.169,0.849,0.169h63.134
		c0.298,0,0.59-0.065,0.848-0.169c0.267-0.13,0.506-0.285,0.7-0.492c0.207-0.194,0.376-0.44,0.485-0.699
		c0.117-0.26,0.182-0.558,0.182-0.855l-0.032-64.675c0-0.26,0.013-0.467,0.045-0.648c0.026-0.193,0.071-0.336,0.117-0.466
		c0.058-0.116,0.13-0.221,0.2-0.285c0.072-0.064,0.162-0.116,0.246-0.143c0.278,0,0.57,0.078,0.849,0.207
		c0.284,0.144,0.551,0.338,0.784,0.519c0.245,0.194,0.439,0.389,0.596,0.531c0.155,0.155,0.246,0.259,0.265,0.285l53.335,53.393
		c3.161,3.199,6.904,5.647,10.732,7.514c3.834,1.852,7.752,3.147,11.282,4.027c3.522,0.895,6.664,1.373,8.911,1.646
		c2.261,0.259,3.641,0.312,3.653,0.312l165.703-0.039c2.792,0,5.901-0.182,9.21-0.661c3.316-0.492,6.827-1.282,10.421-2.513
		c3.601-1.23,7.28-2.889,10.927-5.116c3.646-2.215,7.272-5,10.737-8.472c0.933-0.92,2.384-2.474,4.035-4.637
		c1.658-2.164,3.511-4.936,5.253-8.304s3.368-7.318,4.553-11.839c1.199-4.521,1.943-9.611,1.943-15.259
		c0-5.545-0.59-10.401-1.555-14.689c-0.965-4.262-2.306-7.953-3.802-11.14c-1.502-3.187-3.161-5.867-4.754-8.134
		c-1.6-2.268-3.147-4.12-4.41-5.648c-0.965-1.14-2.455-2.836-4.319-4.871c-1.859-2.046-4.074-4.455-6.471-7.02
		c-2.403-2.578-4.987-5.337-7.577-8.07c-2.591-2.746-5.188-5.479-7.61-8.019c-0.479-0.479-0.9-0.971-1.263-1.502
		c-0.356-0.518-0.668-1.075-0.914-1.645c-0.246-0.584-0.434-1.166-0.557-1.775c-0.123-0.608-0.188-1.23-0.188-1.865
		c0-1.049,0.169-2.072,0.473-3.031c0.312-0.958,0.765-1.839,1.342-2.629c0.576-0.803,1.27-1.503,2.072-2.086
		c0.803-0.569,1.697-1.023,2.688-1.321c0.168-0.052,0.35-0.104,0.525-0.143c0.174-0.038,0.355-0.064,0.537-0.09
		c0.175-0.026,0.356-0.039,0.537-0.052c0.182-0.013,0.362-0.025,0.551-0.025h88.988c0.305,0,0.59-0.065,0.855-0.169
		c0.265-0.116,0.499-0.272,0.699-0.479c0.201-0.194,0.369-0.428,0.479-0.687C1742.571,599.451,1742.636,599.166,1742.636,598.854"/>
	<path fill="#FFE700" d="M1422.595,592.482c2.655,0,5.362,0.413,7.928,1.243c2.564,0.842,4.987,2.111,7.085,3.834
		c2.092,1.71,3.848,3.886,5.084,6.528c1.243,2.643,1.956,5.751,1.956,9.352c0,3.485-0.706,6.412-1.853,8.873
		c-1.146,2.475-2.739,4.456-4.514,6.036c-1.774,1.581-3.743,2.76-5.635,3.588c-1.891,0.83-3.705,1.321-5.201,1.529
		c-0.083,0.013-0.168,0.026-0.259,0.039c-0.084,0.013-0.168,0.013-0.266,0.025c-0.084,0.013-0.168,0.013-0.265,0.013
		c-0.078,0.014-0.163,0.014-0.247,0.014h-51.871c-0.298,0-0.582-0.064-0.849-0.169c-0.252-0.116-0.491-0.271-0.692-0.466
		c-0.188-0.207-0.356-0.453-0.473-0.713c-0.104-0.259-0.169-0.558-0.169-0.867v-36.658c0-0.311,0.065-0.596,0.169-0.867
		c0.116-0.26,0.285-0.492,0.473-0.7c0.201-0.194,0.44-0.35,0.692-0.466c0.267-0.104,0.551-0.168,0.849-0.168H1422.595z
		 M1426.409,626.173c0.13-0.025,0.881-0.129,1.917-0.453c1.05-0.323,2.391-0.855,3.718-1.748c1.328-0.882,2.63-2.112,3.607-3.822
		c0.972-1.71,1.626-3.911,1.626-6.71c0-2.797-0.615-5.038-1.612-6.839c-1.004-1.801-2.384-3.16-3.912-4.158
		c-1.528-0.997-3.219-1.657-4.818-2.06c-1.6-0.389-3.129-0.556-4.34-0.556h-41.639c-0.013,0.013-0.091,0.038-0.213,0.09
		c-0.116,0.064-0.26,0.142-0.408,0.285c-0.149,0.116-0.291,0.298-0.401,0.505c-0.104,0.233-0.169,0.505-0.169,0.842v22.927
		c0,0.351,0.064,0.623,0.169,0.843c0.11,0.22,0.252,0.388,0.401,0.518c0.148,0.13,0.292,0.221,0.408,0.272
		c0.122,0.064,0.2,0.091,0.213,0.091L1426.409,626.173"/>
	<path fill="#FFE700" d="M1162.624,586.031l26.166,83.703c0,0.272-0.052,0.545-0.143,0.803c-0.097,0.246-0.227,0.493-0.389,0.7
		c-0.162,0.194-0.363,0.389-0.583,0.531c-0.227,0.142-0.473,0.259-0.732,0.323h-51.799c-0.266-0.064-0.512-0.182-0.732-0.323
		c-0.227-0.143-0.421-0.337-0.583-0.531c-0.162-0.207-0.305-0.454-0.389-0.7c-0.097-0.258-0.149-0.53-0.149-0.803l26.631-83.418
		c0.084-0.233,0.175-0.454,0.285-0.648c0.097-0.194,0.208-0.362,0.33-0.505c0.117-0.142,0.247-0.259,0.376-0.323
		c0.136-0.078,0.272-0.117,0.421-0.117c0.124,0,0.247,0.039,0.363,0.091c0.11,0.064,0.233,0.155,0.337,0.272
		c0.11,0.104,0.214,0.246,0.311,0.414C1162.449,585.655,1162.533,585.837,1162.624,586.031 M1177.061,664.734
		c0.259-0.064,0.498-0.182,0.719-0.323c0.227-0.155,0.427-0.324,0.589-0.544c0.168-0.194,0.298-0.441,0.389-0.687
		c0.091-0.246,0.136-0.519,0.136-0.804c0-0.116-0.978-3.29-2.48-8.043c-1.489-4.754-3.491-11.075-5.531-17.462
		c-2.021-6.398-4.067-12.849-5.674-17.862c-1.6-5.025-2.746-8.613-2.953-9.274c-0.142-0.492-0.266-0.868-0.369-1.14
		c-0.104-0.284-0.182-0.479-0.246-0.609c-0.058-0.129-0.117-0.194-0.156-0.232c-0.039-0.039-0.064-0.039-0.084-0.039
		c-0.032,0-0.065,0-0.11,0.039c-0.045,0.038-0.104,0.104-0.162,0.232c-0.071,0.13-0.155,0.325-0.259,0.609
		c-0.097,0.271-0.22,0.647-0.362,1.14c-0.22,0.661-1.405,4.249-3.07,9.274c-1.665,5.014-3.808,11.464-5.913,17.862
		c-2.111,6.387-4.197,12.708-5.757,17.462c-1.548,4.753-2.584,7.927-2.584,8.043c0,0.285,0.052,0.558,0.149,0.804
		c0.084,0.245,0.208,0.492,0.375,0.687c0.163,0.22,0.356,0.389,0.577,0.544c0.227,0.142,0.479,0.259,0.745,0.323H1177.061"/>
	<path fill="#FFE700" d="M1217.656,542.807c0.79,2.552,5.155,16.593,11.256,36.204s13.931,44.805,21.671,69.688
		c7.732,24.896,15.375,49.469,21.068,67.862c5.705,18.367,9.475,30.543,9.475,30.634c0,0.26-0.052,0.506-0.148,0.726
		c-0.091,0.221-0.227,0.414-0.389,0.57c-0.175,0.155-0.375,0.298-0.596,0.376c-0.214,0.09-0.46,0.143-0.713,0.143l-72.81,0.025
		c-0.149-0.052-0.292-0.129-0.421-0.22c-0.129-0.104-0.246-0.208-0.344-0.338c-0.11-0.116-0.194-0.259-0.265-0.4
		c-0.071-0.143-0.129-0.298-0.162-0.454l-8.452-27.525c-0.071-0.168-0.168-0.323-0.285-0.467c-0.117-0.129-0.246-0.259-0.388-0.362
		c-0.156-0.104-0.312-0.182-0.48-0.246c-0.162-0.064-0.35-0.116-0.531-0.129l-68.6,0.052c-0.194,0-0.375,0.039-0.55,0.09
		c-0.168,0.052-0.33,0.143-0.486,0.233c-0.136,0.104-0.272,0.233-0.382,0.362c-0.104,0.144-0.207,0.299-0.272,0.467l-8.595,27.5
		c-0.039,0.168-0.091,0.311-0.168,0.467c-0.071,0.142-0.162,0.284-0.266,0.4c-0.097,0.13-0.214,0.246-0.343,0.337
		c-0.123,0.091-0.272,0.155-0.421,0.208h-73.976c-0.253,0-0.499-0.053-0.719-0.143c-0.22-0.104-0.421-0.233-0.589-0.402
		c-0.162-0.168-0.298-0.362-0.388-0.582c-0.098-0.221-0.149-0.467-0.149-0.713c0-0.091,3.666-12.28,9.223-30.66
		c5.557-18.381,12.992-42.953,20.524-67.836s15.168-50.063,21.107-69.675c5.939-19.611,10.188-33.64,10.965-36.191
		c0.071-0.26,0.194-0.492,0.337-0.713c0.148-0.207,0.324-0.401,0.524-0.557c0.207-0.168,0.44-0.298,0.687-0.402
		c0.239-0.077,0.505-0.142,0.777-0.155h111.929c0.285,0.014,0.557,0.078,0.81,0.155c0.252,0.104,0.479,0.234,0.693,0.402
		c0.2,0.155,0.375,0.35,0.518,0.557C1217.475,542.314,1217.584,542.547,1217.656,542.807 M1269.274,741.651
		c0.252,0,0.492-0.053,0.713-0.144c0.22-0.09,0.421-0.232,0.589-0.401c0.168-0.168,0.298-0.362,0.396-0.582
		c0.091-0.221,0.143-0.467,0.143-0.713l-58.899-189.635c-0.071-0.259-0.194-0.492-0.337-0.713c-0.149-0.207-0.324-0.388-0.531-0.556
		c-0.208-0.156-0.434-0.285-0.673-0.376c-0.247-0.091-0.512-0.156-0.791-0.169h-101.029c-0.278,0.013-0.544,0.078-0.79,0.169
		s-0.473,0.22-0.673,0.376c-0.207,0.168-0.389,0.349-0.531,0.556c-0.149,0.221-0.26,0.454-0.337,0.713l-57.37,189.635
		c0,0.246,0.052,0.492,0.148,0.713c0.091,0.22,0.227,0.414,0.402,0.582c0.168,0.169,0.356,0.312,0.577,0.401
		c0.227,0.091,0.466,0.144,0.725,0.144h58.613c0.149-0.053,0.299-0.13,0.421-0.233c0.136-0.091,0.246-0.208,0.35-0.324
		c0.104-0.13,0.194-0.259,0.265-0.414c0.071-0.13,0.123-0.285,0.162-0.44l8.627-27.525c0.071-0.169,0.162-0.324,0.272-0.454
		c0.116-0.129,0.239-0.259,0.395-0.363c0.136-0.103,0.304-0.193,0.479-0.258c0.168-0.052,0.356-0.091,0.551-0.091h79.377
		c0.194,0,0.375,0.039,0.551,0.091c0.168,0.064,0.33,0.155,0.479,0.258c0.143,0.104,0.278,0.234,0.389,0.363
		c0.104,0.13,0.201,0.285,0.272,0.454l8.478,27.525c0.026,0.155,0.078,0.311,0.143,0.44c0.071,0.155,0.162,0.284,0.259,0.414
		c0.104,0.116,0.22,0.233,0.35,0.324c0.129,0.104,0.259,0.181,0.408,0.233H1269.274"/>
	<path fill="#FFE700" d="M1067.645,540.979c0.13,0.014,0.246,0.052,0.363,0.13c0.097,0.078,0.188,0.169,0.258,0.285
		c0.078,0.116,0.136,0.246,0.175,0.376c0.039,0.143,0.058,0.284,0.058,0.44l-62.739,205.813c-0.039,0.142-0.097,0.271-0.162,0.4
		c-0.078,0.117-0.155,0.221-0.246,0.312c-0.097,0.078-0.194,0.155-0.312,0.194c-0.116,0.052-0.239,0.078-0.382,0.078h-68.963
		c-0.11,0-0.213-0.026-0.311-0.053c-0.104-0.025-0.188-0.077-0.266-0.142c-0.09-0.053-0.155-0.13-0.213-0.208
		c-0.058-0.077-0.11-0.182-0.136-0.285l-23.245-76.786c-0.026-0.104-0.059-0.194-0.097-0.271c-0.045-0.091-0.091-0.169-0.162-0.221
		c-0.058-0.065-0.129-0.13-0.207-0.155c-0.084-0.039-0.169-0.052-0.266-0.052c-0.103,0-0.194,0.013-0.265,0.052
		c-0.084,0.025-0.149,0.077-0.201,0.143c-0.058,0.064-0.104,0.129-0.155,0.233c-0.045,0.09-0.084,0.194-0.123,0.311l-23.795,76.45
		c-0.033,0.116-0.084,0.232-0.149,0.349c-0.059,0.104-0.136,0.207-0.227,0.312c-0.084,0.077-0.175,0.155-0.278,0.221
		c-0.097,0.051-0.201,0.091-0.305,0.104h-68.438c-0.143,0-0.272-0.026-0.389-0.078c-0.11-0.039-0.22-0.116-0.311-0.194
		c-0.091-0.091-0.168-0.194-0.239-0.312c-0.065-0.129-0.124-0.259-0.169-0.4l-63.658-205.451c-0.013-0.259,0.02-0.492,0.078-0.687
		s0.143-0.362,0.252-0.492c0.11-0.13,0.24-0.22,0.389-0.285c0.143-0.078,0.311-0.104,0.479-0.104l82.415-0.026
		c0.078,0.014,0.149,0.039,0.227,0.078c0.071,0.039,0.129,0.091,0.187,0.155c0.059,0.052,0.104,0.117,0.136,0.208
		c0.039,0.064,0.059,0.143,0.065,0.233l15.939,53.651c0.013,0.077,0.045,0.168,0.084,0.246c0.039,0.064,0.09,0.143,0.155,0.194
		c0.064,0.052,0.129,0.091,0.207,0.117c0.084,0.038,0.168,0.051,0.259,0.051c0.11,0,0.201-0.025,0.285-0.051
		c0.084-0.026,0.149-0.091,0.208-0.144c0.058-0.064,0.11-0.129,0.156-0.22c0.039-0.091,0.064-0.182,0.09-0.298l15.013-53.704
		l85.918-0.519c0.104,0,0.201,0.014,0.279,0.052c0.091,0.039,0.162,0.091,0.22,0.156c0.065,0.064,0.117,0.129,0.162,0.22
		c0.039,0.078,0.065,0.156,0.078,0.247l16.735,53.548c0.02,0.09,0.052,0.181,0.097,0.259c0.045,0.091,0.104,0.168,0.175,0.233
		c0.071,0.078,0.149,0.143,0.227,0.182c0.091,0.038,0.181,0.064,0.272,0.064c0.104,0,0.194-0.013,0.272-0.052
		c0.084-0.039,0.155-0.091,0.213-0.155c0.058-0.065,0.11-0.143,0.155-0.233c0.045-0.091,0.071-0.182,0.098-0.298l15.997-53.483
		c0.026-0.104,0.052-0.208,0.091-0.285c0.039-0.091,0.09-0.169,0.155-0.233c0.052-0.065,0.124-0.13,0.208-0.169
		c0.084-0.038,0.175-0.052,0.279-0.052H1067.645z M1058.402,549.931c0.007-0.246-0.02-0.479-0.084-0.674
		c-0.058-0.193-0.136-0.362-0.259-0.492c-0.104-0.129-0.233-0.232-0.382-0.298c-0.143-0.064-0.305-0.104-0.473-0.104h-61.392
		c-0.097,0-0.181,0.025-0.265,0.052c-0.078,0.039-0.149,0.104-0.208,0.168c-0.071,0.065-0.117,0.144-0.162,0.221
		c-0.039,0.104-0.071,0.195-0.091,0.299l-20.732,70.076c-0.052,0.181-0.116,0.349-0.201,0.505c-0.084,0.155-0.194,0.285-0.317,0.401
		c-0.123,0.117-0.259,0.194-0.421,0.26c-0.149,0.064-0.324,0.09-0.505,0.09c-0.208,0-0.389-0.025-0.551-0.104
		c-0.155-0.064-0.291-0.155-0.408-0.285c-0.11-0.129-0.213-0.285-0.298-0.467c-0.084-0.181-0.155-0.388-0.22-0.621l-21.528-69.895
		c-0.013-0.078-0.039-0.169-0.078-0.26c-0.045-0.064-0.097-0.143-0.162-0.221c-0.065-0.064-0.136-0.116-0.22-0.155
		s-0.168-0.064-0.279-0.064H874.83l-20.356,70.595c-0.065,0.233-0.136,0.44-0.22,0.621c-0.084,0.182-0.188,0.338-0.305,0.467
		c-0.123,0.13-0.253,0.221-0.408,0.285c-0.156,0.078-0.337,0.104-0.551,0.104c-0.175,0-0.35-0.025-0.505-0.09
		c-0.155-0.065-0.292-0.143-0.421-0.26c-0.117-0.116-0.227-0.246-0.311-0.401c-0.084-0.156-0.156-0.324-0.201-0.505l-20.79-70.142
		c-0.013-0.078-0.039-0.168-0.078-0.246c-0.032-0.064-0.084-0.13-0.142-0.194c-0.052-0.064-0.117-0.117-0.194-0.143
		c-0.071-0.052-0.149-0.078-0.227-0.091h-66.884c-0.168,0-0.33,0.039-0.473,0.091c-0.149,0.064-0.272,0.155-0.375,0.272
		c-0.11,0.116-0.194,0.232-0.259,0.389c-0.058,0.142-0.091,0.31-0.091,0.479l59.112,191.073c0.045,0.143,0.104,0.284,0.175,0.4
		c0.065,0.117,0.149,0.221,0.239,0.312c0.091,0.078,0.195,0.155,0.311,0.194c0.11,0.052,0.24,0.064,0.382,0.064h57.577
		c0.104-0.013,0.194-0.052,0.305-0.104c0.091-0.064,0.188-0.143,0.278-0.246c0.084-0.091,0.155-0.194,0.22-0.311
		c0.065-0.117,0.117-0.22,0.149-0.337l28.587-91.048c0.052-0.182,0.117-0.35,0.201-0.506c0.09-0.143,0.188-0.285,0.311-0.389
		c0.13-0.104,0.266-0.193,0.421-0.245c0.155-0.064,0.331-0.091,0.512-0.091c0.213,0,0.408,0.026,0.583,0.077
		c0.175,0.052,0.33,0.143,0.46,0.246c0.136,0.116,0.239,0.246,0.336,0.389c0.084,0.155,0.149,0.337,0.182,0.519l27.797,91.346
		c0.032,0.104,0.084,0.193,0.149,0.284c0.065,0.078,0.136,0.144,0.22,0.208s0.175,0.104,0.266,0.143
		c0.11,0.025,0.207,0.039,0.311,0.039l58.011,0.025c0.143,0,0.266-0.013,0.382-0.064c0.11-0.039,0.214-0.116,0.311-0.194
		c0.091-0.091,0.168-0.194,0.24-0.324c0.071-0.13,0.123-0.271,0.168-0.414L1058.402,549.931"/>
	<path fill="#FFE700" d="M1327.246,366.038l25.738,83.69c0,0.285-0.052,0.558-0.143,0.81c-0.085,0.246-0.22,0.492-0.376,0.7
		c-0.169,0.2-0.362,0.375-0.582,0.53c-0.228,0.143-0.473,0.253-0.745,0.324h-50.239c-0.266-0.071-0.518-0.182-0.745-0.324
		c-0.214-0.155-0.414-0.33-0.583-0.53c-0.161-0.208-0.291-0.454-0.375-0.7c-0.085-0.252-0.143-0.524-0.143-0.81l25.492-83.412
		c0.084-0.239,0.182-0.453,0.291-0.647c0.097-0.201,0.214-0.363,0.337-0.505c0.116-0.143,0.246-0.253,0.375-0.324
		c0.137-0.077,0.272-0.116,0.409-0.116c0.122,0,0.245,0.039,0.362,0.091c0.116,0.064,0.232,0.155,0.337,0.271
		c0.116,0.11,0.213,0.246,0.311,0.408C1327.071,365.656,1327.162,365.838,1327.246,366.038 M1341.249,444.735
		c0.271-0.064,0.524-0.182,0.751-0.337c0.227-0.136,0.421-0.323,0.59-0.531c0.168-0.201,0.304-0.44,0.388-0.692
		c0.098-0.24,0.143-0.524,0.143-0.797c0-0.116-0.964-3.29-2.422-8.044c-1.457-4.754-3.413-11.075-5.396-17.461
		c-1.981-6.393-3.982-12.85-5.537-17.862c-1.566-5.033-2.681-8.621-2.888-9.275c-0.137-0.491-0.26-0.867-0.357-1.14
		c-0.103-0.284-0.181-0.473-0.246-0.608c-0.058-0.13-0.104-0.194-0.155-0.233c-0.039-0.038-0.071-0.038-0.097-0.038
		c-0.033,0-0.064,0-0.11,0.038c-0.045,0.039-0.097,0.104-0.161,0.233c-0.065,0.136-0.138,0.324-0.24,0.608
		c-0.098,0.272-0.214,0.648-0.344,1.14c-0.214,0.654-1.327,4.242-2.889,9.275c-1.561,5.013-3.563,11.47-5.544,17.862
		c-1.981,6.386-3.938,12.707-5.395,17.461s-2.423,7.928-2.423,8.044c0,0.272,0.046,0.557,0.144,0.797
		c0.083,0.252,0.22,0.491,0.382,0.692c0.174,0.208,0.362,0.396,0.583,0.531c0.227,0.155,0.473,0.272,0.731,0.337H1341.249"/>
</g>
</svg>
